<mxfile host="Electron" agent="Mozilla/5.0 (Windows NT 10.0; Win64; x64) AppleWebKit/537.36 (KHTML, like Gecko) draw.io/26.0.9 Chrome/128.0.6613.186 Electron/32.2.5 Safari/537.36" version="26.0.9">
  <diagram name="Page-1" id="c4acf3e9-155e-7222-9cf6-157b1a14988f">
    <mxGraphModel dx="8800" dy="9510" grid="1" gridSize="10" guides="1" tooltips="1" connect="0" arrows="1" fold="1" page="1" pageScale="1" pageWidth="850" pageHeight="1100" background="none" math="0" shadow="0">
      <root>
        <mxCell id="0" />
        <mxCell id="1" parent="0" />
        <mxCell id="3f7Dd7xccXGfnMvuR6js-60" style="edgeStyle=orthogonalEdgeStyle;rounded=0;orthogonalLoop=1;jettySize=auto;html=1;fontFamily=Helvetica;fontSize=12;fontColor=default;labelBackgroundColor=none;" edge="1" parent="1" source="5d2195bd80daf111-11" target="3f7Dd7xccXGfnMvuR6js-13">
          <mxGeometry relative="1" as="geometry" />
        </mxCell>
        <mxCell id="5d2195bd80daf111-11" value="&lt;p style=&quot;margin:0px;margin-top:4px;text-align:center;&quot;&gt;&lt;span style=&quot;font-family: Roboto, -apple-system, BlinkMacSystemFont, &amp;quot;Apple Color Emoji&amp;quot;, &amp;quot;Segoe UI&amp;quot;, Oxygen, Ubuntu, Cantarell, &amp;quot;Fira Sans&amp;quot;, &amp;quot;Droid Sans&amp;quot;, &amp;quot;Helvetica Neue&amp;quot;, sans-serif; text-align: start; white-space: pre-wrap;&quot;&gt;&lt;font style=&quot;color: rgb(0, 0, 0); font-size: 20px;&quot;&gt;&lt;b&gt;GenreMapper&lt;/b&gt;&lt;/font&gt;&lt;font style=&quot;font-size: 16px; color: rgb(0, 0, 0);&quot;&gt; &lt;/font&gt;&lt;/span&gt;&lt;/p&gt;&lt;hr size=&quot;1&quot;&gt;&lt;p style=&quot;margin:0px;margin-left:4px;&quot;&gt;&amp;nbsp;- GENRE_MAPPING: Map&amp;lt;String, String&amp;gt;&lt;/p&gt;&lt;p style=&quot;margin:0px;margin-left:4px;&quot;&gt;&amp;nbsp; + normalizeGenre(genre: String): String&lt;/p&gt;&lt;p style=&quot;margin:0px;margin-left:4px;&quot;&gt;&amp;nbsp; + normalizeGenres(genres: Set&amp;lt;String&amp;gt;): Set&amp;lt;String&amp;gt;&lt;/p&gt;&lt;p style=&quot;margin:0px;margin-left:4px;&quot;&gt;&amp;nbsp; + getMainGenres(): Set&amp;lt;String&amp;gt;&lt;/p&gt;&lt;p style=&quot;margin:0px;margin-left:4px;&quot;&gt;&amp;nbsp; + isKnownGenre(genre: String): boolean&lt;/p&gt;" style="verticalAlign=top;align=left;overflow=fill;fontSize=12;fontFamily=Helvetica;html=1;rounded=0;shadow=0;comic=0;labelBackgroundColor=none;strokeWidth=1" parent="1" vertex="1">
          <mxGeometry x="2990" y="-370" width="320" height="160" as="geometry" />
        </mxCell>
        <mxCell id="3f7Dd7xccXGfnMvuR6js-39" style="edgeStyle=orthogonalEdgeStyle;rounded=0;orthogonalLoop=1;jettySize=auto;html=1;entryX=0.5;entryY=1;entryDx=0;entryDy=0;fontFamily=Helvetica;fontSize=12;fontColor=default;labelBackgroundColor=none;exitX=0.758;exitY=0.01;exitDx=0;exitDy=0;exitPerimeter=0;" edge="1" parent="1" source="3f7Dd7xccXGfnMvuR6js-10" target="Cpw8ShEnOvC4lxhR0TyV-16">
          <mxGeometry relative="1" as="geometry">
            <mxPoint x="4540" y="-1510" as="sourcePoint" />
            <Array as="points">
              <mxPoint x="4897" y="-1559" />
              <mxPoint x="4695" y="-1559" />
            </Array>
          </mxGeometry>
        </mxCell>
        <mxCell id="3f7Dd7xccXGfnMvuR6js-40" style="edgeStyle=orthogonalEdgeStyle;rounded=0;orthogonalLoop=1;jettySize=auto;html=1;exitX=1;exitY=0.583;exitDx=0;exitDy=0;entryX=0;entryY=0.5;entryDx=0;entryDy=0;fontFamily=Helvetica;fontSize=12;fontColor=default;labelBackgroundColor=none;exitPerimeter=0;" edge="1" parent="1" source="3f7Dd7xccXGfnMvuR6js-10" target="Cpw8ShEnOvC4lxhR0TyV-22">
          <mxGeometry relative="1" as="geometry">
            <mxPoint x="4330" y="-1517.5" as="sourcePoint" />
          </mxGeometry>
        </mxCell>
        <mxCell id="3f7Dd7xccXGfnMvuR6js-41" style="edgeStyle=orthogonalEdgeStyle;rounded=0;orthogonalLoop=1;jettySize=auto;html=1;entryX=0.5;entryY=1;entryDx=0;entryDy=0;fontFamily=Helvetica;fontSize=12;fontColor=default;labelBackgroundColor=none;" edge="1" parent="1">
          <mxGeometry relative="1" as="geometry">
            <mxPoint x="5040" y="-1300" as="sourcePoint" />
            <mxPoint x="5293.75" y="-2050" as="targetPoint" />
          </mxGeometry>
        </mxCell>
        <mxCell id="3f7Dd7xccXGfnMvuR6js-42" style="edgeStyle=orthogonalEdgeStyle;rounded=0;orthogonalLoop=1;jettySize=auto;html=1;fontFamily=Helvetica;fontSize=12;fontColor=default;labelBackgroundColor=none;exitX=0.491;exitY=0;exitDx=0;exitDy=0;exitPerimeter=0;" edge="1" parent="1" source="3f7Dd7xccXGfnMvuR6js-10" target="Cpw8ShEnOvC4lxhR0TyV-9">
          <mxGeometry relative="1" as="geometry">
            <mxPoint x="4058.1899999999996" y="-1563.06" as="sourcePoint" />
            <Array as="points">
              <mxPoint x="4720" y="-1380" />
              <mxPoint x="4650" y="-1380" />
              <mxPoint x="4650" y="-1820" />
              <mxPoint x="4570" y="-1820" />
            </Array>
          </mxGeometry>
        </mxCell>
        <mxCell id="3f7Dd7xccXGfnMvuR6js-44" style="edgeStyle=orthogonalEdgeStyle;rounded=0;orthogonalLoop=1;jettySize=auto;html=1;entryX=0;entryY=0.75;entryDx=0;entryDy=0;fontFamily=Helvetica;fontSize=12;fontColor=default;labelBackgroundColor=none;exitX=-0.002;exitY=0.332;exitDx=0;exitDy=0;exitPerimeter=0;" edge="1" parent="1" source="3f7Dd7xccXGfnMvuR6js-10" target="5d2195bd80daf111-11">
          <mxGeometry relative="1" as="geometry">
            <mxPoint x="3945" y="-1432.5" as="sourcePoint" />
          </mxGeometry>
        </mxCell>
        <mxCell id="3f7Dd7xccXGfnMvuR6js-45" style="edgeStyle=orthogonalEdgeStyle;rounded=0;orthogonalLoop=1;jettySize=auto;html=1;exitX=-0.009;exitY=0.11;exitDx=0;exitDy=0;entryX=0.5;entryY=1;entryDx=0;entryDy=0;fontFamily=Helvetica;fontSize=12;fontColor=default;labelBackgroundColor=none;exitPerimeter=0;" edge="1" parent="1" source="3f7Dd7xccXGfnMvuR6js-10" target="Cpw8ShEnOvC4lxhR0TyV-23">
          <mxGeometry relative="1" as="geometry">
            <mxPoint x="3945" y="-1517.5" as="sourcePoint" />
          </mxGeometry>
        </mxCell>
        <mxCell id="Cpw8ShEnOvC4lxhR0TyV-1" value="&lt;p style=&quot;margin:0px;margin-top:4px;text-align:center;&quot;&gt;&lt;i&gt;&lt;font style=&quot;font-size: 20px;&quot;&gt;&lt;b&gt;SpotifyAPIManager&lt;/b&gt;&lt;/font&gt;&lt;/i&gt;&lt;/p&gt;&lt;hr size=&quot;1&quot;&gt;&lt;p style=&quot;margin:0px;margin-left:4px;&quot;&gt;- accessToken: String&lt;/p&gt;&lt;p style=&quot;margin:0px;margin-left:4px;&quot;&gt;&amp;nbsp; + SpotifyAPIManager()&lt;/p&gt;&lt;p style=&quot;margin:0px;margin-left:4px;&quot;&gt;&amp;nbsp; + getArtistSongs(artistName: String, limit: int): List&amp;lt;Map&amp;lt;String, Object&amp;gt;&amp;gt;&lt;/p&gt;&lt;p style=&quot;margin:0px;margin-left:4px;&quot;&gt;&amp;nbsp; + createPlaylist(playlistName: String, songs: List&amp;lt;Map&amp;lt;String, Object&amp;gt;&amp;gt;): void&lt;/p&gt;" style="verticalAlign=top;align=left;overflow=fill;fontSize=12;fontFamily=Helvetica;html=1;rounded=0;shadow=0;comic=0;labelBackgroundColor=none;strokeWidth=1" parent="1" vertex="1">
          <mxGeometry x="5060" y="-2170" width="435" height="120" as="geometry" />
        </mxCell>
        <mxCell id="Cpw8ShEnOvC4lxhR0TyV-3" value="&lt;p style=&quot;margin:0px;margin-top:4px;text-align:center;&quot;&gt;&lt;span style=&quot;font-family: Roboto, -apple-system, BlinkMacSystemFont, &amp;quot;Apple Color Emoji&amp;quot;, &amp;quot;Segoe UI&amp;quot;, Oxygen, Ubuntu, Cantarell, &amp;quot;Fira Sans&amp;quot;, &amp;quot;Droid Sans&amp;quot;, &amp;quot;Helvetica Neue&amp;quot;, sans-serif; text-align: start; white-space: pre-wrap;&quot;&gt;&lt;font style=&quot;color: rgb(0, 0, 0); font-size: 20px;&quot;&gt;&lt;b style=&quot;&quot;&gt;Playlist &lt;/b&gt;&lt;/font&gt;&lt;/span&gt;&lt;/p&gt;&lt;hr size=&quot;1&quot;&gt;&lt;p style=&quot;margin:0px;margin-left:4px;&quot;&gt;&lt;br&gt;&lt;/p&gt;" style="verticalAlign=top;align=left;overflow=fill;fontSize=12;fontFamily=Helvetica;html=1;rounded=0;shadow=0;comic=0;labelBackgroundColor=none;strokeWidth=1" parent="1" vertex="1">
          <mxGeometry x="2680" y="-1325" width="190" height="160" as="geometry" />
        </mxCell>
        <mxCell id="Cpw8ShEnOvC4lxhR0TyV-9" value="&lt;p style=&quot;text-align: center; margin: 4px 0px 0px;&quot;&gt;&lt;span style=&quot;font-family: Roboto, -apple-system, BlinkMacSystemFont, &amp;quot;Apple Color Emoji&amp;quot;, &amp;quot;Segoe UI&amp;quot;, Oxygen, Ubuntu, Cantarell, &amp;quot;Fira Sans&amp;quot;, &amp;quot;Droid Sans&amp;quot;, &amp;quot;Helvetica Neue&amp;quot;, sans-serif; white-space: pre-wrap; background-color: light-dark(#ffffff, var(--ge-dark-color, #121212));&quot;&gt;&lt;font style=&quot;color: rgb(0, 0, 0); font-size: 20px;&quot;&gt;&lt;b style=&quot;&quot;&gt;LastFmAPIManager &lt;/b&gt;&lt;/font&gt;&lt;/span&gt;&lt;/p&gt;&lt;hr size=&quot;1&quot;&gt;&lt;p style=&quot;margin:0px;margin-left:4px;&quot;&gt;+ getArtistInfo(artistName: String): Map&amp;lt;String, Object&amp;gt;&lt;br&gt;&lt;/p&gt;" style="verticalAlign=top;align=left;overflow=fill;fontSize=12;fontFamily=Helvetica;html=1;rounded=0;shadow=0;comic=0;labelBackgroundColor=none;strokeWidth=1" parent="1" vertex="1">
          <mxGeometry x="4380" y="-2070" width="330" height="70" as="geometry" />
        </mxCell>
        <mxCell id="Cpw8ShEnOvC4lxhR0TyV-16" value="&lt;p style=&quot;text-align: center; margin: 4px 0px 0px;&quot;&gt;&lt;i&gt;&lt;b&gt;&lt;font style=&quot;font-size: 20px;&quot;&gt;MusicDatabaseManager&lt;/font&gt;&lt;/b&gt;&lt;/i&gt;&lt;/p&gt;&lt;p style=&quot;margin: 0px 0px 0px 4px;&quot;&gt;&lt;br&gt;&lt;/p&gt;&lt;font style=&quot;color: rgb(0, 0, 0);&quot;&gt;&lt;hr&gt;&lt;span style=&quot;font-size: 16px; white-space: pre-wrap;&quot;&gt;&lt;div style=&quot;&quot;&gt;&lt;font style=&quot;&quot; face=&quot;Roboto, -apple-system, BlinkMacSystemFont, Apple Color Emoji, Segoe UI, Oxygen, Ubuntu, Cantarell, Fira Sans, Droid Sans, Helvetica Neue, sans-serif&quot;&gt;&amp;nbsp;&lt;/font&gt;&lt;font style=&quot;&quot; face=&quot;Helvetica&quot;&gt;-String DB_URL&lt;/font&gt;&lt;/div&gt;&lt;/span&gt;&lt;font style=&quot;&quot; face=&quot;Helvetica&quot;&gt;&lt;span style=&quot;font-size: 16px; white-space: pre-wrap;&quot;&gt;&lt;div style=&quot;&quot;&gt;&amp;nbsp;&amp;nbsp;&amp;nbsp;&amp;nbsp;&amp;nbsp;&amp;nbsp;&amp;nbsp;&amp;nbsp;-String DB_USER&lt;/div&gt;&lt;/span&gt;&lt;span style=&quot;font-size: 16px; white-space: pre-wrap;&quot;&gt;&lt;div style=&quot;&quot;&gt;&lt;font&gt;&amp;nbsp;&amp;nbsp;&amp;nbsp;&amp;nbsp;&amp;nbsp;&amp;nbsp;&amp;nbsp;&amp;nbsp;-String DB_PASSWORD&lt;/font&gt;&lt;/div&gt;&lt;/span&gt;&lt;font&gt;&lt;span style=&quot;font-size: 16px; white-space: pre-wrap;&quot;&gt;&lt;div style=&quot;&quot;&gt;&amp;nbsp;&amp;nbsp;&amp;nbsp;&amp;nbsp;&amp;nbsp;&amp;nbsp;&amp;nbsp;&amp;nbsp;-String CACHE_DIR&lt;/div&gt;&lt;/span&gt;&lt;span style=&quot;font-size: 16px; white-space: pre-wrap;&quot;&gt;&lt;div style=&quot;&quot;&gt;&amp;nbsp;&amp;nbsp;&amp;nbsp;&amp;nbsp;&amp;nbsp;&amp;nbsp;&amp;nbsp;&amp;nbsp;-String CACHE_FILE&lt;/div&gt;&lt;/span&gt;&lt;span style=&quot;font-size: 16px; white-space: pre-wrap;&quot;&gt;&lt;div style=&quot;&quot;&gt;&amp;nbsp;&amp;nbsp;&amp;nbsp;&amp;nbsp;&amp;nbsp;&amp;nbsp;&amp;nbsp;&amp;nbsp;-int CACHE_SIZE_LIMIT&lt;/div&gt;&lt;/span&gt;&lt;span style=&quot;font-size: 16px; white-space: pre-wrap;&quot;&gt;&lt;div style=&quot;&quot;&gt;&amp;nbsp;&amp;nbsp;&amp;nbsp;&amp;nbsp;&amp;nbsp;&amp;nbsp;&amp;nbsp;&amp;nbsp;-JSONObject cache&lt;/div&gt;&lt;/span&gt;&lt;span style=&quot;font-size: 16px; white-space: pre-wrap;&quot;&gt;&lt;div style=&quot;&quot;&gt;&amp;nbsp;&amp;nbsp;&amp;nbsp;&amp;nbsp;&amp;nbsp;&amp;nbsp;&amp;nbsp;&amp;nbsp;-boolean isOnline&lt;/div&gt;&lt;/span&gt;&lt;span style=&quot;font-size: 16px; white-space: pre-wrap;&quot;&gt;&lt;div style=&quot;&quot;&gt;&amp;nbsp;&amp;nbsp;&amp;nbsp;&amp;nbsp;&amp;nbsp;&amp;nbsp;&amp;nbsp;&amp;nbsp;-String userId&lt;/div&gt;&lt;/span&gt;&lt;span style=&quot;font-size: 16px; white-space: pre-wrap;&quot;&gt;&lt;div style=&quot;&quot;&gt;&amp;nbsp;&amp;nbsp;&amp;nbsp;&amp;nbsp;&amp;nbsp;&amp;nbsp;&amp;nbsp;&amp;nbsp;-OfflineDataManager offlineManager&lt;/div&gt;&lt;/span&gt;&lt;span style=&quot;font-size: 16px; white-space: pre-wrap;&quot;&gt;&lt;div style=&quot;&quot;&gt;&amp;nbsp;&amp;nbsp;&amp;nbsp;&amp;nbsp;&amp;nbsp;&amp;nbsp;&amp;nbsp;&amp;nbsp;+MusicDatabaseManager(boolean isOnline, String userId)&lt;/div&gt;&lt;/span&gt;&lt;span style=&quot;font-size: 16px; white-space: pre-wrap;&quot;&gt;&lt;div style=&quot;&quot;&gt;&amp;nbsp;&amp;nbsp;&amp;nbsp;&amp;nbsp;&amp;nbsp;&amp;nbsp;&amp;nbsp;&amp;nbsp;-void loadCache()&lt;/div&gt;&lt;/span&gt;&lt;span style=&quot;font-size: 16px; white-space: pre-wrap;&quot;&gt;&lt;div style=&quot;&quot;&gt;&amp;nbsp;&amp;nbsp;&amp;nbsp;&amp;nbsp;&amp;nbsp;&amp;nbsp;&amp;nbsp;&amp;nbsp;+void saveCache()&lt;/div&gt;&lt;/span&gt;&lt;span style=&quot;font-size: 16px; white-space: pre-wrap;&quot;&gt;&lt;div style=&quot;&quot;&gt;&amp;nbsp;&amp;nbsp;&amp;nbsp;&amp;nbsp;&amp;nbsp;&amp;nbsp;&amp;nbsp;&amp;nbsp;+List~Map&amp;lt;String, Object&amp;gt;~ getTopArtists(int limit)&lt;/div&gt;&lt;/span&gt;&lt;span style=&quot;font-size: 16px; white-space: pre-wrap;&quot;&gt;&lt;div style=&quot;&quot;&gt;&amp;nbsp;&amp;nbsp;&amp;nbsp;&amp;nbsp;&amp;nbsp;&amp;nbsp;&amp;nbsp;&amp;nbsp;+List~Map&amp;lt;String, Object&amp;gt;~ getTopSongs(int limit)&lt;/div&gt;&lt;/span&gt;&lt;span style=&quot;font-size: 16px; white-space: pre-wrap;&quot;&gt;&lt;div style=&quot;&quot;&gt;&amp;nbsp;&amp;nbsp;&amp;nbsp;&amp;nbsp;&amp;nbsp;&amp;nbsp;&amp;nbsp;&amp;nbsp;-List~Map&amp;lt;String, Object&amp;gt;~ getTopArtistsFromCache(int limit)&lt;/div&gt;&lt;/span&gt;&lt;span style=&quot;font-size: 16px; white-space: pre-wrap;&quot;&gt;&lt;div style=&quot;&quot;&gt;&amp;nbsp;&amp;nbsp;&amp;nbsp;&amp;nbsp;&amp;nbsp;&amp;nbsp;&amp;nbsp;&amp;nbsp;-List~Map&amp;lt;String, Object&amp;gt;~ getTopSongsFromCache(int limit)&lt;/div&gt;&lt;/span&gt;&lt;span style=&quot;font-size: 16px; white-space: pre-wrap;&quot;&gt;&lt;div style=&quot;&quot;&gt;&amp;nbsp;&amp;nbsp;&amp;nbsp;&amp;nbsp;&amp;nbsp;&amp;nbsp;&amp;nbsp;&amp;nbsp;+void updateArtistData(String artistName, Map&amp;lt;String, Object&amp;gt; data)&lt;/div&gt;&lt;/span&gt;&lt;span style=&quot;font-size: 16px; white-space: pre-wrap;&quot;&gt;&lt;div style=&quot;&quot;&gt;&amp;nbsp;&amp;nbsp;&amp;nbsp;&amp;nbsp;&amp;nbsp;&amp;nbsp;&amp;nbsp;&amp;nbsp;+void updateSongData(String title, String artistName, Map&amp;lt;String, Object&amp;gt; data)&lt;/div&gt;&lt;/span&gt;&lt;span style=&quot;font-size: 16px; white-space: pre-wrap;&quot;&gt;&lt;div style=&quot;&quot;&gt;&amp;nbsp;&amp;nbsp;&amp;nbsp;&amp;nbsp;&amp;nbsp;&amp;nbsp;&amp;nbsp;&amp;nbsp;-void updateArtistCache(String artistName, Map&amp;lt;String, Object&amp;gt; data)&lt;/div&gt;&lt;/span&gt;&lt;span style=&quot;font-size: 16px; white-space: pre-wrap;&quot;&gt;&lt;div style=&quot;&quot;&gt;&amp;nbsp;&amp;nbsp;&amp;nbsp;&amp;nbsp;&amp;nbsp;&amp;nbsp;&amp;nbsp;&amp;nbsp;-void updateSongCache(String title, String artistName, Map&amp;lt;String, Object&amp;gt; data)&lt;/div&gt;&lt;/span&gt;&lt;span style=&quot;font-size: 16px; white-space: pre-wrap;&quot;&gt;&lt;div style=&quot;&quot;&gt;&amp;nbsp;&amp;nbsp;&amp;nbsp;&amp;nbsp;&amp;nbsp;&amp;nbsp;&amp;nbsp;&amp;nbsp;+Map&amp;lt;String, Object&amp;gt; getUserPreferences()&lt;/div&gt;&lt;/span&gt;&lt;span style=&quot;font-size: 16px; white-space: pre-wrap;&quot;&gt;&lt;div style=&quot;&quot;&gt;&amp;nbsp;&amp;nbsp;&amp;nbsp;&amp;nbsp;&amp;nbsp;&amp;nbsp;&amp;nbsp;&amp;nbsp;+List~Map&amp;lt;String, Object&amp;gt;~ getRecommendedSongs(int limit)&lt;/div&gt;&lt;/span&gt;&lt;span style=&quot;font-size: 16px; white-space: pre-wrap;&quot;&gt;&lt;div style=&quot;&quot;&gt;&amp;nbsp;&amp;nbsp;&amp;nbsp;&amp;nbsp;&amp;nbsp;&amp;nbsp;&amp;nbsp;&amp;nbsp;+List~Map&amp;lt;String, Object&amp;gt;~ getSimilarArtists(String artistName, int limit)&lt;/div&gt;&lt;/span&gt;&lt;span style=&quot;font-size: 16px; white-space: pre-wrap;&quot;&gt;&lt;div style=&quot;&quot;&gt;&amp;nbsp;&amp;nbsp;&amp;nbsp;&amp;nbsp;&amp;nbsp;&amp;nbsp;&amp;nbsp;&amp;nbsp;+void updateUserPreferences(Map&amp;lt;String, Object&amp;gt; preferences)&lt;/div&gt;&lt;/span&gt;&lt;span style=&quot;font-size: 16px; white-space: pre-wrap;&quot;&gt;&lt;div style=&quot;&quot;&gt;&amp;nbsp;&amp;nbsp;&amp;nbsp;&amp;nbsp;&amp;nbsp;&amp;nbsp;&amp;nbsp;&amp;nbsp;-Map&amp;lt;String, Object&amp;gt; getUserPreferencesFromCache()&lt;/div&gt;&lt;/span&gt;&lt;span style=&quot;font-size: 16px; white-space: pre-wrap;&quot;&gt;&lt;div style=&quot;&quot;&gt;&amp;nbsp;&amp;nbsp;&amp;nbsp;&amp;nbsp;&amp;nbsp;&amp;nbsp;&amp;nbsp;&amp;nbsp;-void updateUserPreferencesCache(Map&amp;lt;String, Object&amp;gt; preferences)&lt;/div&gt;&lt;/span&gt;&lt;/font&gt;&lt;/font&gt;&lt;/font&gt;" style="verticalAlign=top;align=left;overflow=fill;fontSize=12;fontFamily=Helvetica;html=1;rounded=0;shadow=0;comic=0;labelBackgroundColor=none;strokeWidth=1" parent="1" vertex="1">
          <mxGeometry x="4420" y="-2990" width="630" height="620" as="geometry" />
        </mxCell>
        <mxCell id="Cpw8ShEnOvC4lxhR0TyV-20" value="&lt;p style=&quot;text-align: center; margin: 4px 0px 0px;&quot;&gt;&lt;span style=&quot;font-family: Roboto, -apple-system, BlinkMacSystemFont, &amp;quot;Apple Color Emoji&amp;quot;, &amp;quot;Segoe UI&amp;quot;, Oxygen, Ubuntu, Cantarell, &amp;quot;Fira Sans&amp;quot;, &amp;quot;Droid Sans&amp;quot;, &amp;quot;Helvetica Neue&amp;quot;, sans-serif; white-space: pre-wrap;&quot;&gt;&lt;font style=&quot;font-size: 20px;&quot;&gt;&lt;b&gt;PlaylistPreferences&lt;/b&gt;&lt;/font&gt;&lt;/span&gt;&lt;/p&gt;&lt;hr size=&quot;1&quot;&gt;&lt;p style=&quot;margin:0px;margin-left:4px;&quot;&gt;&lt;br&gt;&lt;/p&gt;" style="verticalAlign=top;align=left;overflow=fill;fontSize=12;fontFamily=Helvetica;html=1;rounded=0;shadow=0;comic=0;labelBackgroundColor=none;strokeWidth=1" parent="1" vertex="1">
          <mxGeometry x="5480" y="-1070" width="330" height="180" as="geometry" />
        </mxCell>
        <mxCell id="3f7Dd7xccXGfnMvuR6js-47" style="edgeStyle=orthogonalEdgeStyle;rounded=0;orthogonalLoop=1;jettySize=auto;html=1;exitX=0.005;exitY=0.06;exitDx=0;exitDy=0;entryX=0.75;entryY=1;entryDx=0;entryDy=0;fontFamily=Helvetica;fontSize=12;fontColor=default;labelBackgroundColor=none;exitPerimeter=0;" edge="1" parent="1" source="3f7Dd7xccXGfnMvuR6js-10" target="3f7Dd7xccXGfnMvuR6js-46">
          <mxGeometry relative="1" as="geometry">
            <mxPoint x="3945" y="-1475" as="sourcePoint" />
          </mxGeometry>
        </mxCell>
        <mxCell id="3f7Dd7xccXGfnMvuR6js-53" style="edgeStyle=orthogonalEdgeStyle;rounded=0;orthogonalLoop=1;jettySize=auto;html=1;fontFamily=Helvetica;fontSize=12;fontColor=default;labelBackgroundColor=none;exitX=0.998;exitY=0.771;exitDx=0;exitDy=0;exitPerimeter=0;" edge="1" parent="1" source="3f7Dd7xccXGfnMvuR6js-10" target="Cpw8ShEnOvC4lxhR0TyV-20">
          <mxGeometry relative="1" as="geometry">
            <mxPoint x="4330" y="-1475" as="sourcePoint" />
          </mxGeometry>
        </mxCell>
        <mxCell id="Cpw8ShEnOvC4lxhR0TyV-22" value="&lt;p style=&quot;text-align: center; margin: 4px 0px 0px;&quot;&gt;&lt;span style=&quot;font-size: 20px;&quot;&gt;&lt;b&gt;&lt;i&gt;OfflineDataManager&lt;/i&gt;&lt;/b&gt;&lt;/span&gt;&lt;/p&gt;&lt;hr size=&quot;1&quot;&gt;&lt;p style=&quot;margin:0px;margin-left:4px;&quot;&gt;&lt;font face=&quot;Roboto, -apple-system, BlinkMacSystemFont, Apple Color Emoji, Segoe UI, Oxygen, Ubuntu, Cantarell, Fira Sans, Droid Sans, Helvetica Neue, sans-serif&quot;&gt;&lt;span style=&quot;font-size: 16px; white-space: pre-wrap;&quot;&gt;- CACHE_DIR: String&lt;br/&gt;  - CACHE_FILE: String&lt;br/&gt;  - CACHE_SIZE_LIMIT: int&lt;br/&gt;  - cache: JSONObject&lt;br/&gt;  - userId: String&lt;br/&gt;  + OfflineDataManager(userId: String)&lt;br/&gt;  - loadCache(): void&lt;br/&gt;  - initializeCacheStructure(): void&lt;br/&gt;  + saveCache(): void&lt;br/&gt;  + getUserPreferences(): Map&amp;lt;String, Object&amp;gt;&lt;br/&gt;  + updateUserPreferences(preferences: Map&amp;lt;String, Object&amp;gt;): void&lt;br/&gt;  + getArtistSongs(artistName: String, limit: int): List&amp;lt;Map&amp;lt;String, Object&amp;gt;&amp;gt;&lt;br/&gt;  + saveUserData(userData: UserMusicData): void&lt;/span&gt;&lt;/font&gt;&lt;br&gt;&lt;/p&gt;" style="verticalAlign=top;align=left;overflow=fill;fontSize=12;fontFamily=Helvetica;html=1;rounded=0;shadow=0;comic=0;labelBackgroundColor=none;strokeWidth=1" parent="1" vertex="1">
          <mxGeometry x="5850" y="-1830" width="540" height="300" as="geometry" />
        </mxCell>
        <mxCell id="Cpw8ShEnOvC4lxhR0TyV-23" value="&lt;p style=&quot;text-align: center; margin: 4px 0px 0px;&quot;&gt;&lt;span style=&quot;font-size: 20px;&quot;&gt;&lt;b&gt;&lt;i&gt;&lt;font face=&quot;Helvetica&quot;&gt;UserInterface&lt;/font&gt;&lt;/i&gt;&lt;/b&gt;&lt;/span&gt;&lt;/p&gt;&lt;hr size=&quot;1&quot;&gt;&lt;p class=&quot;MsoNormal&quot;&gt;&amp;nbsp;- scanner: Scanner&lt;/p&gt;&lt;p class=&quot;MsoNormal&quot;&gt;&amp;nbsp; - playlists: List&amp;lt;String&amp;gt;&lt;/p&gt;&lt;p class=&quot;MsoNormal&quot;&gt;&amp;nbsp; - playlistSongs: Map&amp;lt;String, List&amp;lt;String&amp;gt;&amp;gt;&lt;/p&gt;&lt;p class=&quot;MsoNormal&quot;&gt;&amp;nbsp; + UserInterface()&lt;/p&gt;&lt;p class=&quot;MsoNormal&quot;&gt;&amp;nbsp; - seedSampleData(): void&lt;/p&gt;&lt;p class=&quot;MsoNormal&quot;&gt;&amp;nbsp; + start(): void&lt;/p&gt;&lt;p class=&quot;MsoNormal&quot;&gt;&amp;nbsp; - viewPlaylists(): void&lt;/p&gt;&lt;p class=&quot;MsoNormal&quot;&gt;&amp;nbsp; - viewSongsInPlaylist(): void&lt;/p&gt;&lt;p class=&quot;MsoNormal&quot;&gt;&amp;nbsp; - createNewPlaylist(): void&lt;/p&gt;&lt;p class=&quot;MsoNormal&quot;&gt;&amp;nbsp; - addSongToPlaylist(): void&lt;/p&gt;&lt;p class=&quot;MsoNormal&quot;&gt;&amp;nbsp; - removeSongFromPlaylist(): void&lt;/p&gt;&lt;p class=&quot;MsoNormal&quot;&gt;&amp;nbsp; - deletePlaylist(): void&lt;/p&gt;&lt;p class=&quot;MsoNormal&quot;&gt;&amp;nbsp; - searchSong(): void&lt;/p&gt;" style="verticalAlign=top;align=left;overflow=fill;fontSize=12;fontFamily=Helvetica;html=1;rounded=0;shadow=0;comic=0;labelBackgroundColor=none;strokeWidth=1" parent="1" vertex="1">
          <mxGeometry x="2820" y="-2210" width="310" height="400" as="geometry" />
        </mxCell>
        <mxCell id="3f7Dd7xccXGfnMvuR6js-28" style="edgeStyle=orthogonalEdgeStyle;rounded=0;orthogonalLoop=1;jettySize=auto;html=1;exitX=1;exitY=0.25;exitDx=0;exitDy=0;entryX=0;entryY=0.5;entryDx=0;entryDy=0;fontFamily=Helvetica;fontSize=12;fontColor=default;labelBackgroundColor=none;" edge="1" parent="1" source="3f7Dd7xccXGfnMvuR6js-2" target="3f7Dd7xccXGfnMvuR6js-3">
          <mxGeometry relative="1" as="geometry" />
        </mxCell>
        <mxCell id="3f7Dd7xccXGfnMvuR6js-29" style="edgeStyle=orthogonalEdgeStyle;rounded=0;orthogonalLoop=1;jettySize=auto;html=1;exitX=1;exitY=0.5;exitDx=0;exitDy=0;entryX=0;entryY=0.5;entryDx=0;entryDy=0;fontFamily=Helvetica;fontSize=12;fontColor=default;labelBackgroundColor=none;" edge="1" parent="1" source="3f7Dd7xccXGfnMvuR6js-2" target="3f7Dd7xccXGfnMvuR6js-4">
          <mxGeometry relative="1" as="geometry" />
        </mxCell>
        <mxCell id="3f7Dd7xccXGfnMvuR6js-31" style="edgeStyle=orthogonalEdgeStyle;rounded=0;orthogonalLoop=1;jettySize=auto;html=1;exitX=0;exitY=0.5;exitDx=0;exitDy=0;entryX=1;entryY=0.5;entryDx=0;entryDy=0;fontFamily=Helvetica;fontSize=12;fontColor=default;labelBackgroundColor=none;" edge="1" parent="1" source="3f7Dd7xccXGfnMvuR6js-2" target="5d2195bd80daf111-11">
          <mxGeometry relative="1" as="geometry" />
        </mxCell>
        <mxCell id="3f7Dd7xccXGfnMvuR6js-32" style="edgeStyle=orthogonalEdgeStyle;rounded=0;orthogonalLoop=1;jettySize=auto;html=1;exitX=0;exitY=0.25;exitDx=0;exitDy=0;entryX=1;entryY=0.5;entryDx=0;entryDy=0;fontFamily=Helvetica;fontSize=12;fontColor=default;labelBackgroundColor=none;" edge="1" parent="1" source="3f7Dd7xccXGfnMvuR6js-2" target="3f7Dd7xccXGfnMvuR6js-5">
          <mxGeometry relative="1" as="geometry" />
        </mxCell>
        <mxCell id="3f7Dd7xccXGfnMvuR6js-33" style="edgeStyle=orthogonalEdgeStyle;rounded=0;orthogonalLoop=1;jettySize=auto;html=1;exitX=0.25;exitY=1;exitDx=0;exitDy=0;entryX=1;entryY=0.5;entryDx=0;entryDy=0;fontFamily=Helvetica;fontSize=12;fontColor=default;labelBackgroundColor=none;" edge="1" parent="1" source="3f7Dd7xccXGfnMvuR6js-2" target="3f7Dd7xccXGfnMvuR6js-26">
          <mxGeometry relative="1" as="geometry" />
        </mxCell>
        <mxCell id="3f7Dd7xccXGfnMvuR6js-34" style="edgeStyle=orthogonalEdgeStyle;rounded=0;orthogonalLoop=1;jettySize=auto;html=1;exitX=0.75;exitY=1;exitDx=0;exitDy=0;entryX=0.5;entryY=0;entryDx=0;entryDy=0;fontFamily=Helvetica;fontSize=12;fontColor=default;labelBackgroundColor=none;" edge="1" parent="1" source="3f7Dd7xccXGfnMvuR6js-2" target="3f7Dd7xccXGfnMvuR6js-14">
          <mxGeometry relative="1" as="geometry" />
        </mxCell>
        <mxCell id="3f7Dd7xccXGfnMvuR6js-35" style="edgeStyle=orthogonalEdgeStyle;rounded=0;orthogonalLoop=1;jettySize=auto;html=1;exitX=0.5;exitY=1;exitDx=0;exitDy=0;entryX=0.5;entryY=0;entryDx=0;entryDy=0;fontFamily=Helvetica;fontSize=12;fontColor=default;labelBackgroundColor=none;" edge="1" parent="1" source="3f7Dd7xccXGfnMvuR6js-2" target="3f7Dd7xccXGfnMvuR6js-9">
          <mxGeometry relative="1" as="geometry" />
        </mxCell>
        <mxCell id="3f7Dd7xccXGfnMvuR6js-37" style="edgeStyle=orthogonalEdgeStyle;rounded=0;orthogonalLoop=1;jettySize=auto;html=1;exitX=0.5;exitY=0;exitDx=0;exitDy=0;entryX=0.5;entryY=1;entryDx=0;entryDy=0;fontFamily=Helvetica;fontSize=12;fontColor=default;labelBackgroundColor=none;" edge="1" parent="1" source="3f7Dd7xccXGfnMvuR6js-2" target="3f7Dd7xccXGfnMvuR6js-20">
          <mxGeometry relative="1" as="geometry" />
        </mxCell>
        <mxCell id="3f7Dd7xccXGfnMvuR6js-38" style="edgeStyle=orthogonalEdgeStyle;rounded=0;orthogonalLoop=1;jettySize=auto;html=1;exitX=0.25;exitY=0;exitDx=0;exitDy=0;entryX=0.5;entryY=1;entryDx=0;entryDy=0;fontFamily=Helvetica;fontSize=12;fontColor=default;labelBackgroundColor=none;" edge="1" parent="1" source="3f7Dd7xccXGfnMvuR6js-2" target="3f7Dd7xccXGfnMvuR6js-17">
          <mxGeometry relative="1" as="geometry" />
        </mxCell>
        <mxCell id="3f7Dd7xccXGfnMvuR6js-2" value="&lt;p style=&quot;text-align: center; margin: 4px 0px 0px;&quot;&gt;&lt;font face=&quot;Roboto, -apple-system, BlinkMacSystemFont, Apple Color Emoji, Segoe UI, Oxygen, Ubuntu, Cantarell, Fira Sans, Droid Sans, Helvetica Neue, sans-serif&quot;&gt;&lt;span style=&quot;font-size: 20px; white-space: pre-wrap;&quot;&gt;&lt;b&gt;Application&lt;/b&gt;&lt;/span&gt;&lt;/font&gt;&lt;br&gt;&lt;/p&gt;&lt;hr style=&quot;text-align: center;&quot; size=&quot;1&quot;&gt;&lt;p style=&quot;margin:0px;margin-left:4px;&quot;&gt;- CONFIG_FILE: String&lt;/p&gt;&lt;p style=&quot;margin:0px;margin-left:4px;&quot;&gt;&amp;nbsp; - config: ApplicationConfig&lt;/p&gt;&lt;p style=&quot;margin:0px;margin-left:4px;&quot;&gt;&amp;nbsp; + main(args: String[]): void&lt;/p&gt;&lt;p style=&quot;margin:0px;margin-left:4px;&quot;&gt;&amp;nbsp; - parseArguments(args: String[]): CommandLineOptions&lt;/p&gt;&lt;p style=&quot;margin:0px;margin-left:4px;&quot;&gt;&amp;nbsp; - loadConfig(): ApplicationConfig&lt;/p&gt;&lt;p style=&quot;margin:0px;margin-left:4px;&quot;&gt;&amp;nbsp; - saveConfig(config: ApplicationConfig): void&lt;/p&gt;&lt;p style=&quot;margin:0px;margin-left:4px;&quot;&gt;&amp;nbsp; - runSetupWizard(): void&lt;/p&gt;&lt;p style=&quot;margin:0px;margin-left:4px;&quot;&gt;&amp;nbsp; - launchGui(): void&lt;/p&gt;&lt;p style=&quot;margin:0px;margin-left:4px;&quot;&gt;&amp;nbsp; - launchCli(options: CommandLineOptions): void&lt;/p&gt;&lt;p style=&quot;margin:0px;margin-left:4px;&quot;&gt;&amp;nbsp; - importUserData(app: PlaylistGeneratorApp, filePath: String): void&lt;/p&gt;&lt;p style=&quot;margin:0px;margin-left:4px;&quot;&gt;&amp;nbsp; - normalizeGenres(data: UserMusicData): void&lt;/p&gt;&lt;p style=&quot;margin:0px;margin-left:4px;&quot;&gt;&amp;nbsp; - generatePlaylist(app: PlaylistGeneratorApp): void&lt;/p&gt;&lt;p style=&quot;margin:0px;margin-left:4px;&quot;&gt;&amp;nbsp; - displayHelp(): void&lt;/p&gt;" style="verticalAlign=top;align=left;overflow=fill;fontSize=12;fontFamily=Helvetica;html=1;rounded=0;shadow=0;comic=0;labelBackgroundColor=none;strokeWidth=1" vertex="1" parent="1">
          <mxGeometry x="3920" y="-570" width="390" height="240" as="geometry" />
        </mxCell>
        <mxCell id="3f7Dd7xccXGfnMvuR6js-3" value="&lt;p style=&quot;text-align: center; margin: 4px 0px 0px;&quot;&gt;&lt;font face=&quot;Roboto, -apple-system, BlinkMacSystemFont, Apple Color Emoji, Segoe UI, Oxygen, Ubuntu, Cantarell, Fira Sans, Droid Sans, Helvetica Neue, sans-serif&quot;&gt;&lt;span style=&quot;font-size: 20px; white-space: pre-wrap;&quot;&gt;&lt;b&gt;CommandLineOptions&lt;/b&gt;&lt;/span&gt;&lt;/font&gt;&lt;br&gt;&lt;/p&gt;&lt;hr style=&quot;text-align: center;&quot; size=&quot;1&quot;&gt;&lt;p style=&quot;margin:0px;margin-left:4px;&quot;&gt;- guiMode: boolean&lt;/p&gt;&lt;p style=&quot;margin:0px;margin-left:4px;&quot;&gt;&amp;nbsp; - setupMode: boolean&lt;/p&gt;&lt;p style=&quot;margin:0px;margin-left:4px;&quot;&gt;&amp;nbsp; - generatePlaylist: boolean&lt;/p&gt;&lt;p style=&quot;margin:0px;margin-left:4px;&quot;&gt;&amp;nbsp; - importFile: String&lt;/p&gt;&lt;p style=&quot;margin:0px;margin-left:4px;&quot;&gt;&amp;nbsp; - userId: String&lt;/p&gt;&lt;p style=&quot;margin:0px;margin-left:4px;&quot;&gt;&amp;nbsp; + getters()&lt;/p&gt;&lt;p style=&quot;margin:0px;margin-left:4px;&quot;&gt;&amp;nbsp; + setters()&lt;/p&gt;" style="verticalAlign=top;align=left;overflow=fill;fontSize=12;fontFamily=Helvetica;html=1;rounded=0;shadow=0;comic=0;labelBackgroundColor=none;strokeWidth=1" vertex="1" parent="1">
          <mxGeometry x="4780" y="-720" width="290" height="160" as="geometry" />
        </mxCell>
        <mxCell id="3f7Dd7xccXGfnMvuR6js-65" style="edgeStyle=orthogonalEdgeStyle;rounded=0;orthogonalLoop=1;jettySize=auto;html=1;fontFamily=Helvetica;fontSize=12;fontColor=default;labelBackgroundColor=none;" edge="1" parent="1" source="3f7Dd7xccXGfnMvuR6js-4" target="3f7Dd7xccXGfnMvuR6js-64">
          <mxGeometry relative="1" as="geometry" />
        </mxCell>
        <mxCell id="3f7Dd7xccXGfnMvuR6js-4" value="&lt;p style=&quot;text-align: center; margin: 4px 0px 0px;&quot;&gt;&lt;font face=&quot;Roboto, -apple-system, BlinkMacSystemFont, Apple Color Emoji, Segoe UI, Oxygen, Ubuntu, Cantarell, Fira Sans, Droid Sans, Helvetica Neue, sans-serif&quot;&gt;&lt;span style=&quot;font-size: 20px; white-space: pre-wrap;&quot;&gt;&lt;b&gt;UserMusicData&lt;/b&gt;&lt;/span&gt;&lt;/font&gt;&lt;br&gt;&lt;/p&gt;&lt;hr style=&quot;text-align: center;&quot; size=&quot;1&quot;&gt;&lt;p style=&quot;margin:0px;margin-left:4px;&quot;&gt;- songs: List&amp;lt;Song&amp;gt;&lt;/p&gt;&lt;p style=&quot;margin:0px;margin-left:4px;&quot;&gt;&amp;nbsp; - artists: List&amp;lt;Artist&amp;gt;&lt;/p&gt;&lt;p style=&quot;margin:0px;margin-left:4px;&quot;&gt;&amp;nbsp; - playHistory: List&amp;lt;PlayHistory&amp;gt;&lt;/p&gt;&lt;p style=&quot;margin:0px;margin-left:4px;&quot;&gt;&amp;nbsp; - favoriteGenres: List&amp;lt;String&amp;gt;&lt;/p&gt;&lt;p style=&quot;margin:0px;margin-left:4px;&quot;&gt;&amp;nbsp; + getSongs(): List&amp;lt;Song&amp;gt;&lt;/p&gt;&lt;p style=&quot;margin:0px;margin-left:4px;&quot;&gt;&amp;nbsp; + getArtists(): List&amp;lt;Artist&amp;gt;&lt;/p&gt;&lt;p style=&quot;margin:0px;margin-left:4px;&quot;&gt;&amp;nbsp; + getPlayHistory(): List&amp;lt;PlayHistory&amp;gt;&lt;/p&gt;&lt;p style=&quot;margin:0px;margin-left:4px;&quot;&gt;&amp;nbsp; + getFavoriteGenres(): List&amp;lt;String&amp;gt;&lt;/p&gt;&lt;p style=&quot;margin:0px;margin-left:4px;&quot;&gt;&amp;nbsp; + addSong(song: Song): void&lt;/p&gt;&lt;p style=&quot;margin:0px;margin-left:4px;&quot;&gt;&amp;nbsp; + addArtist(artist: Artist): void&lt;/p&gt;&lt;p style=&quot;margin:0px;margin-left:4px;&quot;&gt;&amp;nbsp; + addFavoriteGenre(genre: String): void&lt;/p&gt;&lt;p style=&quot;margin:0px;margin-left:4px;&quot;&gt;&amp;nbsp; + merge(other: UserMusicData): void&lt;/p&gt;&lt;p style=&quot;margin:0px;margin-left:4px;&quot;&gt;&amp;nbsp; + isEmpty(): boolean&lt;/p&gt;" style="verticalAlign=top;align=left;overflow=fill;fontSize=12;fontFamily=Helvetica;html=1;rounded=0;shadow=0;comic=0;labelBackgroundColor=none;strokeWidth=1" vertex="1" parent="1">
          <mxGeometry x="4800" y="-440" width="290" height="240" as="geometry" />
        </mxCell>
        <mxCell id="3f7Dd7xccXGfnMvuR6js-5" value="&lt;p style=&quot;text-align: center; margin: 4px 0px 0px;&quot;&gt;&lt;font face=&quot;Roboto, -apple-system, BlinkMacSystemFont, Apple Color Emoji, Segoe UI, Oxygen, Ubuntu, Cantarell, Fira Sans, Droid Sans, Helvetica Neue, sans-serif&quot;&gt;&lt;span style=&quot;font-size: 20px; white-space: pre-wrap;&quot;&gt;&lt;b&gt;Song&lt;/b&gt;&lt;/span&gt;&lt;/font&gt;&lt;br&gt;&lt;/p&gt;&lt;hr style=&quot;text-align: center;&quot; size=&quot;1&quot;&gt;&lt;p style=&quot;margin:0px;margin-left:4px;&quot;&gt;- title: String&lt;/p&gt;&lt;p style=&quot;margin:0px;margin-left:4px;&quot;&gt;&amp;nbsp; - artistName: String&lt;/p&gt;&lt;p style=&quot;margin:0px;margin-left:4px;&quot;&gt;&amp;nbsp; - album: String&lt;/p&gt;&lt;p style=&quot;margin:0px;margin-left:4px;&quot;&gt;&amp;nbsp; - durationMs: long&lt;/p&gt;&lt;p style=&quot;margin:0px;margin-left:4px;&quot;&gt;&amp;nbsp; - genres: List&amp;lt;String&amp;gt;&lt;/p&gt;&lt;p style=&quot;margin:0px;margin-left:4px;&quot;&gt;&amp;nbsp; - playCount: int&lt;/p&gt;&lt;p style=&quot;margin:0px;margin-left:4px;&quot;&gt;&amp;nbsp; - id: String&lt;/p&gt;&lt;p style=&quot;margin:0px;margin-left:4px;&quot;&gt;&amp;nbsp; - artistSpotifyId: String&lt;/p&gt;&lt;p style=&quot;margin:0px;margin-left:4px;&quot;&gt;&amp;nbsp; - popularity: int&lt;/p&gt;&lt;p style=&quot;margin:0px;margin-left:4px;&quot;&gt;&amp;nbsp; - imageUrl: String&lt;/p&gt;&lt;p style=&quot;margin:0px;margin-left:4px;&quot;&gt;&amp;nbsp; + getters()&lt;/p&gt;&lt;p style=&quot;margin:0px;margin-left:4px;&quot;&gt;&amp;nbsp; + setters()&lt;/p&gt;" style="verticalAlign=top;align=left;overflow=fill;fontSize=12;fontFamily=Helvetica;html=1;rounded=0;shadow=0;comic=0;labelBackgroundColor=none;strokeWidth=1" vertex="1" parent="1">
          <mxGeometry x="3140" y="-650" width="290" height="240" as="geometry" />
        </mxCell>
        <mxCell id="3f7Dd7xccXGfnMvuR6js-6" value="&lt;p style=&quot;text-align: center; margin: 4px 0px 0px;&quot;&gt;&lt;font face=&quot;Roboto, -apple-system, BlinkMacSystemFont, Apple Color Emoji, Segoe UI, Oxygen, Ubuntu, Cantarell, Fira Sans, Droid Sans, Helvetica Neue, sans-serif&quot;&gt;&lt;span style=&quot;font-size: 20px; white-space: pre-wrap;&quot;&gt;&lt;b&gt;Artist&lt;/b&gt;&lt;/span&gt;&lt;/font&gt;&lt;br&gt;&lt;/p&gt;&lt;hr style=&quot;text-align: center;&quot; size=&quot;1&quot;&gt;&lt;p style=&quot;margin:0px;margin-left:4px;&quot;&gt;- name: String&lt;/p&gt;&lt;p style=&quot;margin:0px;margin-left:4px;&quot;&gt;&amp;nbsp; - spotifyId: String&lt;/p&gt;&lt;p style=&quot;margin:0px;margin-left:4px;&quot;&gt;&amp;nbsp; - popularity: int&lt;/p&gt;&lt;p style=&quot;margin:0px;margin-left:4px;&quot;&gt;&amp;nbsp; - imageUrl: String&lt;/p&gt;&lt;p style=&quot;margin:0px;margin-left:4px;&quot;&gt;&amp;nbsp; - genres: List&amp;lt;String&amp;gt;&lt;/p&gt;&lt;p style=&quot;margin:0px;margin-left:4px;&quot;&gt;&amp;nbsp; - topSongs: List&amp;lt;Song&amp;gt;&lt;/p&gt;&lt;p style=&quot;margin:0px;margin-left:4px;&quot;&gt;&amp;nbsp; + getters()&lt;/p&gt;&lt;p style=&quot;margin:0px;margin-left:4px;&quot;&gt;&amp;nbsp; + setters()&lt;/p&gt;" style="verticalAlign=top;align=left;overflow=fill;fontSize=12;fontFamily=Helvetica;html=1;rounded=0;shadow=0;comic=0;labelBackgroundColor=none;strokeWidth=1" vertex="1" parent="1">
          <mxGeometry x="3450" y="-1630" width="230" height="170" as="geometry" />
        </mxCell>
        <mxCell id="3f7Dd7xccXGfnMvuR6js-7" value="&lt;p style=&quot;text-align: center; margin: 4px 0px 0px;&quot;&gt;&lt;font face=&quot;Roboto, -apple-system, BlinkMacSystemFont, Apple Color Emoji, Segoe UI, Oxygen, Ubuntu, Cantarell, Fira Sans, Droid Sans, Helvetica Neue, sans-serif&quot;&gt;&lt;span style=&quot;font-size: 20px; white-space: pre-wrap;&quot;&gt;&lt;b&gt;Playlist&lt;/b&gt;&lt;/span&gt;&lt;/font&gt;&lt;br&gt;&lt;/p&gt;&lt;hr style=&quot;text-align: center;&quot; size=&quot;1&quot;&gt;&lt;p style=&quot;margin:0px;margin-left:4px;&quot;&gt;- name: String&lt;/p&gt;&lt;p style=&quot;margin:0px;margin-left:4px;&quot;&gt;&amp;nbsp; - songs: List&amp;lt;Song&amp;gt;&lt;/p&gt;&lt;p style=&quot;margin:0px;margin-left:4px;&quot;&gt;&amp;nbsp; - description: String&lt;/p&gt;&lt;p style=&quot;margin:0px;margin-left:4px;&quot;&gt;&amp;nbsp; + getName(): String&lt;/p&gt;&lt;p style=&quot;margin:0px;margin-left:4px;&quot;&gt;&amp;nbsp; + getSongs(): List&amp;lt;Song&amp;gt;&lt;/p&gt;&lt;p style=&quot;margin:0px;margin-left:4px;&quot;&gt;&amp;nbsp; + getDescription(): String&lt;/p&gt;&lt;p style=&quot;margin:0px;margin-left:4px;&quot;&gt;&amp;nbsp; + setters()&lt;/p&gt;" style="verticalAlign=top;align=left;overflow=fill;fontSize=12;fontFamily=Helvetica;html=1;rounded=0;shadow=0;comic=0;labelBackgroundColor=none;strokeWidth=1" vertex="1" parent="1">
          <mxGeometry x="3825" y="-1160" width="230" height="170" as="geometry" />
        </mxCell>
        <mxCell id="3f7Dd7xccXGfnMvuR6js-8" value="&lt;p style=&quot;text-align: center; margin: 4px 0px 0px;&quot;&gt;&lt;font face=&quot;Roboto, -apple-system, BlinkMacSystemFont, Apple Color Emoji, Segoe UI, Oxygen, Ubuntu, Cantarell, Fira Sans, Droid Sans, Helvetica Neue, sans-serif&quot;&gt;&lt;span style=&quot;font-size: 20px; white-space: pre-wrap;&quot;&gt;&lt;b&gt;PlayHistory&lt;/b&gt;&lt;/span&gt;&lt;/font&gt;&lt;br&gt;&lt;/p&gt;&lt;hr style=&quot;text-align: center;&quot; size=&quot;1&quot;&gt;&lt;p style=&quot;margin:0px;margin-left:4px;&quot;&gt;- songId: String&lt;/p&gt;&lt;p style=&quot;margin:0px;margin-left:4px;&quot;&gt;&amp;nbsp; - timestamp: Date&lt;/p&gt;&lt;p style=&quot;margin:0px;margin-left:4px;&quot;&gt;&amp;nbsp; + getters()&lt;/p&gt;&lt;p style=&quot;margin:0px;margin-left:4px;&quot;&gt;&amp;nbsp; + setters()&lt;/p&gt;" style="verticalAlign=top;align=left;overflow=fill;fontSize=12;fontFamily=Helvetica;html=1;rounded=0;shadow=0;comic=0;labelBackgroundColor=none;strokeWidth=1" vertex="1" parent="1">
          <mxGeometry x="2980" y="-940" width="230" height="120" as="geometry" />
        </mxCell>
        <mxCell id="3f7Dd7xccXGfnMvuR6js-9" value="&lt;p style=&quot;text-align: center; margin: 4px 0px 0px;&quot;&gt;&lt;font face=&quot;Roboto, -apple-system, BlinkMacSystemFont, Apple Color Emoji, Segoe UI, Oxygen, Ubuntu, Cantarell, Fira Sans, Droid Sans, Helvetica Neue, sans-serif&quot;&gt;&lt;span style=&quot;font-size: 20px; white-space: pre-wrap;&quot;&gt;&lt;b&gt;ApplicationConfig&lt;/b&gt;&lt;/span&gt;&lt;/font&gt;&lt;br&gt;&lt;/p&gt;&lt;hr style=&quot;text-align: center;&quot; size=&quot;1&quot;&gt;&lt;p style=&quot;margin:0px;margin-left:4px;&quot;&gt;- firstRun: boolean&lt;/p&gt;&lt;p style=&quot;margin:0px;margin-left:4px;&quot;&gt;&amp;nbsp; - defaultUserId: String&lt;/p&gt;&lt;p style=&quot;margin:0px;margin-left:4px;&quot;&gt;&amp;nbsp; - dataDirectory: String&lt;/p&gt;&lt;p style=&quot;margin:0px;margin-left:4px;&quot;&gt;&amp;nbsp; - databaseType: String&lt;/p&gt;&lt;p style=&quot;margin:0px;margin-left:4px;&quot;&gt;&amp;nbsp; - databasePath: String&lt;/p&gt;&lt;p style=&quot;margin:0px;margin-left:4px;&quot;&gt;&amp;nbsp; - offlineMode: boolean&lt;/p&gt;&lt;p style=&quot;margin:0px;margin-left:4px;&quot;&gt;&amp;nbsp; - collectAnonymousStats: boolean&lt;/p&gt;&lt;p style=&quot;margin:0px;margin-left:4px;&quot;&gt;&amp;nbsp; - playerType: String&lt;/p&gt;&lt;p style=&quot;margin:0px;margin-left:4px;&quot;&gt;&amp;nbsp; - apiKeys: Map&amp;lt;String, String&amp;gt;&lt;/p&gt;&lt;p style=&quot;margin:0px;margin-left:4px;&quot;&gt;&amp;nbsp; - importPaths: List&amp;lt;String&amp;gt;&lt;/p&gt;&lt;p style=&quot;margin:0px;margin-left:4px;&quot;&gt;&amp;nbsp; - uiPreferences: Map&amp;lt;String, Object&amp;gt;&lt;/p&gt;&lt;p style=&quot;margin:0px;margin-left:4px;&quot;&gt;&amp;nbsp; + fromJson(jsonString: String): ApplicationConfig&lt;/p&gt;&lt;p style=&quot;margin:0px;margin-left:4px;&quot;&gt;&amp;nbsp; + toJson(): String&lt;/p&gt;&lt;p style=&quot;margin:0px;margin-left:4px;&quot;&gt;&amp;nbsp; + getters()&lt;/p&gt;&lt;p style=&quot;margin:0px;margin-left:4px;&quot;&gt;&amp;nbsp; + setters()&lt;/p&gt;" style="verticalAlign=top;align=left;overflow=fill;fontSize=12;fontFamily=Helvetica;html=1;rounded=0;shadow=0;comic=0;labelBackgroundColor=none;strokeWidth=1" vertex="1" parent="1">
          <mxGeometry x="3930" y="30" width="390" height="260" as="geometry" />
        </mxCell>
        <mxCell id="3f7Dd7xccXGfnMvuR6js-10" value="&lt;p style=&quot;text-align: center; margin: 4px 0px 0px;&quot;&gt;&lt;font face=&quot;Roboto, -apple-system, BlinkMacSystemFont, Apple Color Emoji, Segoe UI, Oxygen, Ubuntu, Cantarell, Fira Sans, Droid Sans, Helvetica Neue, sans-serif&quot;&gt;&lt;span style=&quot;font-size: 20px; white-space: pre-wrap;&quot;&gt;&lt;b&gt;PlaylistGeneratorApp&lt;/b&gt;&lt;/span&gt;&lt;/font&gt;&lt;br&gt;&lt;/p&gt;&lt;hr style=&quot;text-align: center;&quot; size=&quot;1&quot;&gt;&lt;p style=&quot;margin:0px;margin-left:4px;&quot;&gt;- dbManager: MusicDatabaseManager&lt;/p&gt;&lt;p style=&quot;margin:0px;margin-left:4px;&quot;&gt;&amp;nbsp; - offlineManager: OfflineDataManager&lt;/p&gt;&lt;p style=&quot;margin:0px;margin-left:4px;&quot;&gt;&amp;nbsp; - spotifyManager: SpotifyAPIManager&lt;/p&gt;&lt;p style=&quot;margin:0px;margin-left:4px;&quot;&gt;&amp;nbsp; - musicBrainzManager: MusicBrainzAPIManager&lt;/p&gt;&lt;p style=&quot;margin:0px;margin-left:4px;&quot;&gt;&amp;nbsp; - lastFmManager: LastFmAPIManager&lt;/p&gt;&lt;p style=&quot;margin:0px;margin-left:4px;&quot;&gt;&amp;nbsp; - genreMapper: GenreMapper&lt;/p&gt;&lt;p style=&quot;margin:0px;margin-left:4px;&quot;&gt;&amp;nbsp; - userId: String&lt;/p&gt;&lt;p style=&quot;margin:0px;margin-left:4px;&quot;&gt;&amp;nbsp; - userInterface: UserInterface&lt;/p&gt;&lt;p style=&quot;margin:0px;margin-left:4px;&quot;&gt;&amp;nbsp; - playlistGenerator: PlaylistGenerator&lt;/p&gt;&lt;p style=&quot;margin:0px;margin-left:4px;&quot;&gt;&amp;nbsp; - isOnline: boolean&lt;/p&gt;&lt;p style=&quot;margin:0px;margin-left:4px;&quot;&gt;&amp;nbsp; + PlaylistGeneratorApp(userId: String)&lt;/p&gt;&lt;p style=&quot;margin:0px;margin-left:4px;&quot;&gt;&amp;nbsp; - checkInternetConnectivity(): boolean&lt;/p&gt;&lt;p style=&quot;margin:0px;margin-left:4px;&quot;&gt;&amp;nbsp; + generatePlaylist(params: PlaylistParameters): void&lt;/p&gt;&lt;p style=&quot;margin:0px;margin-left:4px;&quot;&gt;&amp;nbsp; - convertToPreferences(params: PlaylistParameters): PlaylistPreferences&lt;/p&gt;&lt;p style=&quot;margin:0px;margin-left:4px;&quot;&gt;&amp;nbsp; - convertPlaylistToSongMaps(playlist: Playlist): List&amp;lt;Map&amp;lt;String, Object&amp;gt;&amp;gt;&lt;/p&gt;&lt;p style=&quot;margin:0px;margin-left:4px;&quot;&gt;&amp;nbsp; - getSongsFromSimilarArtists(userPrefs: Map&amp;lt;String, Object&amp;gt;, count: int): List&amp;lt;Map&amp;lt;String, Object&amp;gt;&amp;gt;&lt;/p&gt;&lt;p style=&quot;margin:0px;margin-left:4px;&quot;&gt;&amp;nbsp; - getArtistSongs(artistName: String, limit: int): List&amp;lt;Map&amp;lt;String, Object&amp;gt;&amp;gt;&lt;/p&gt;&lt;p style=&quot;margin:0px;margin-left:4px;&quot;&gt;&amp;nbsp; - createPlaylist(playlistName: String, songs: List&amp;lt;Map&amp;lt;String, Object&amp;gt;&amp;gt;): void&lt;/p&gt;&lt;p style=&quot;margin:0px;margin-left:4px;&quot;&gt;&amp;nbsp; + updateUserPreferences(preferences: Map&amp;lt;String, Object&amp;gt;): void&lt;/p&gt;&lt;p style=&quot;margin:0px;margin-left:4px;&quot;&gt;&amp;nbsp; + syncOfflineData(): void&lt;/p&gt;&lt;p style=&quot;margin:0px;margin-left:4px;&quot;&gt;&amp;nbsp; + saveUserData(userData: UserMusicData): void&lt;/p&gt;" style="verticalAlign=top;align=left;overflow=fill;fontSize=12;fontFamily=Helvetica;html=1;rounded=0;shadow=0;comic=0;labelBackgroundColor=none;strokeWidth=1" vertex="1" parent="1">
          <mxGeometry x="4480" y="-1360" width="550" height="360" as="geometry" />
        </mxCell>
        <mxCell id="3f7Dd7xccXGfnMvuR6js-11" value="&lt;p style=&quot;text-align: center; margin: 4px 0px 0px;&quot;&gt;&lt;font face=&quot;Roboto, -apple-system, BlinkMacSystemFont, Apple Color Emoji, Segoe UI, Oxygen, Ubuntu, Cantarell, Fira Sans, Droid Sans, Helvetica Neue, sans-serif&quot;&gt;&lt;span style=&quot;font-size: 20px; white-space: pre-wrap;&quot;&gt;&lt;b&gt;PlaylistParameters&lt;/b&gt;&lt;/span&gt;&lt;/font&gt;&lt;br&gt;&lt;/p&gt;&lt;hr style=&quot;text-align: center;&quot; size=&quot;1&quot;&gt;&lt;p style=&quot;margin:0px;margin-left:4px;&quot;&gt;- name: String&lt;/p&gt;&lt;p style=&quot;margin:0px;margin-left:4px;&quot;&gt;&amp;nbsp; - songCount: int&lt;/p&gt;&lt;p style=&quot;margin:0px;margin-left:4px;&quot;&gt;&amp;nbsp; - genres: List&amp;lt;String&amp;gt;&lt;/p&gt;&lt;p style=&quot;margin:0px;margin-left:4px;&quot;&gt;&amp;nbsp; - artists: List&amp;lt;String&amp;gt;&lt;/p&gt;&lt;p style=&quot;margin:0px;margin-left:4px;&quot;&gt;&amp;nbsp; - excludeArtists: List&amp;lt;String&amp;gt;&lt;/p&gt;&lt;p style=&quot;margin:0px;margin-left:4px;&quot;&gt;&amp;nbsp; - minDuration: int&lt;/p&gt;&lt;p style=&quot;margin:0px;margin-left:4px;&quot;&gt;&amp;nbsp; - maxDuration: int&lt;/p&gt;&lt;p style=&quot;margin:0px;margin-left:4px;&quot;&gt;&amp;nbsp; - preferImportedMusic: boolean&lt;/p&gt;&lt;p style=&quot;margin:0px;margin-left:4px;&quot;&gt;&amp;nbsp; - selectionStrategy: PlaylistSelectionStrategy&lt;/p&gt;&lt;p style=&quot;margin:0px;margin-left:4px;&quot;&gt;&amp;nbsp; + PlaylistParameters()&lt;/p&gt;&lt;p style=&quot;margin:0px;margin-left:4px;&quot;&gt;&amp;nbsp; + getters()&lt;/p&gt;&lt;p style=&quot;margin:0px;margin-left:4px;&quot;&gt;&amp;nbsp; + setters()&lt;/p&gt;&lt;p style=&quot;margin:0px;margin-left:4px;&quot;&gt;&amp;nbsp; + addGenre(genre: String): void&lt;/p&gt;&lt;p style=&quot;margin:0px;margin-left:4px;&quot;&gt;&amp;nbsp; + addExcludedArtist(artist: String): void&lt;/p&gt;" style="verticalAlign=top;align=left;overflow=fill;fontSize=12;fontFamily=Helvetica;html=1;rounded=0;shadow=0;comic=0;labelBackgroundColor=none;strokeWidth=1" vertex="1" parent="1">
          <mxGeometry x="3600" y="-2040" width="390" height="260" as="geometry" />
        </mxCell>
        <mxCell id="3f7Dd7xccXGfnMvuR6js-12" value="&lt;p style=&quot;margin:0px;margin-top:4px;text-align:center;&quot;&gt;&lt;span style=&quot;font-family: Roboto, -apple-system, BlinkMacSystemFont, &amp;quot;Apple Color Emoji&amp;quot;, &amp;quot;Segoe UI&amp;quot;, Oxygen, Ubuntu, Cantarell, &amp;quot;Fira Sans&amp;quot;, &amp;quot;Droid Sans&amp;quot;, &amp;quot;Helvetica Neue&amp;quot;, sans-serif; text-align: start; white-space: pre-wrap;&quot;&gt;&lt;font style=&quot;color: rgb(0, 0, 0); font-size: 20px;&quot;&gt;&lt;b style=&quot;&quot;&gt; &lt;/b&gt;&lt;/font&gt;&lt;/span&gt;&lt;font face=&quot;Roboto, -apple-system, BlinkMacSystemFont, Apple Color Emoji, Segoe UI, Oxygen, Ubuntu, Cantarell, Fira Sans, Droid Sans, Helvetica Neue, sans-serif&quot;&gt;&lt;span style=&quot;font-size: 20px; white-space: pre-wrap;&quot;&gt;&lt;b&gt;MusicDatabaseManager&lt;/b&gt;&lt;/span&gt;&lt;/font&gt;&lt;br&gt;&lt;br&gt;&lt;/p&gt;&lt;hr size=&quot;1&quot;&gt;&lt;p style=&quot;margin:0px;margin-left:4px;&quot;&gt;- DB_URL: String&lt;/p&gt;&lt;p style=&quot;margin:0px;margin-left:4px;&quot;&gt;&amp;nbsp; - DB_USER: String&lt;/p&gt;&lt;p style=&quot;margin:0px;margin-left:4px;&quot;&gt;&amp;nbsp; - DB_PASSWORD: String&lt;/p&gt;&lt;p style=&quot;margin:0px;margin-left:4px;&quot;&gt;&amp;nbsp; - isOnline: boolean&lt;/p&gt;&lt;p style=&quot;margin:0px;margin-left:4px;&quot;&gt;&amp;nbsp; - userId: String&lt;/p&gt;&lt;p style=&quot;margin:0px;margin-left:4px;&quot;&gt;&amp;nbsp; - offlineManager: OfflineDataManager&lt;/p&gt;&lt;p style=&quot;margin:0px;margin-left:4px;&quot;&gt;&amp;nbsp; + MusicDatabaseManager(isOnline: boolean, userId: String)&lt;/p&gt;&lt;p style=&quot;margin:0px;margin-left:4px;&quot;&gt;&amp;nbsp; + getUserPreferences(): Map&amp;lt;String, Object&amp;gt;&lt;/p&gt;&lt;p style=&quot;margin:0px;margin-left:4px;&quot;&gt;&amp;nbsp; + saveUserData(userData: UserMusicData): void&lt;/p&gt;" style="verticalAlign=top;align=left;overflow=fill;fontSize=12;fontFamily=Helvetica;html=1;rounded=0;shadow=0;comic=0;labelBackgroundColor=none;strokeWidth=1" vertex="1" parent="1">
          <mxGeometry x="5010" y="-960" width="340" height="200" as="geometry" />
        </mxCell>
        <mxCell id="3f7Dd7xccXGfnMvuR6js-62" style="edgeStyle=orthogonalEdgeStyle;rounded=0;orthogonalLoop=1;jettySize=auto;html=1;fontFamily=Helvetica;fontSize=12;fontColor=default;labelBackgroundColor=none;" edge="1" parent="1" source="3f7Dd7xccXGfnMvuR6js-13">
          <mxGeometry relative="1" as="geometry">
            <mxPoint x="3870" y="-2040" as="targetPoint" />
          </mxGeometry>
        </mxCell>
        <mxCell id="3f7Dd7xccXGfnMvuR6js-13" value="&lt;p style=&quot;text-align: center; margin: 4px 0px 0px;&quot;&gt;&amp;nbsp;&lt;font face=&quot;Roboto, -apple-system, BlinkMacSystemFont, Apple Color Emoji, Segoe UI, Oxygen, Ubuntu, Cantarell, Fira Sans, Droid Sans, Helvetica Neue, sans-serif&quot;&gt;&lt;span style=&quot;font-size: 20px; white-space: pre-wrap;&quot;&gt;&lt;b&gt;CliController&lt;/b&gt;&lt;/span&gt;&lt;/font&gt;&lt;br&gt;&lt;/p&gt;&lt;hr style=&quot;text-align: center;&quot; size=&quot;1&quot;&gt;&lt;p style=&quot;margin:0px;margin-left:4px;&quot;&gt;&lt;font face=&quot;Roboto, -apple-system, BlinkMacSystemFont, Apple Color Emoji, Segoe UI, Oxygen, Ubuntu, Cantarell, Fira Sans, Droid Sans, Helvetica Neue, sans-serif&quot;&gt;&lt;span style=&quot;font-size: 16px; white-space: pre-wrap;&quot;&gt;- app: PlaylistGeneratorApp&lt;br/&gt;  - scanner: Scanner&lt;br/&gt;  - ui: UserInterface&lt;br/&gt;  + CliController(app: PlaylistGeneratorApp)&lt;br/&gt;  + start(): void&lt;br/&gt;  - printMainMenu(): void&lt;br/&gt;  - getUserChoice(min: int, max: int): int&lt;br/&gt;  - generatePlaylist(): void&lt;br/&gt;  - collectGenres(params: PlaylistParameters): void&lt;br/&gt;  - collectExcludedArtists(params: PlaylistParameters): void&lt;br/&gt;  - updatePreferences(): void&lt;br/&gt;  - syncData(): void&lt;br/&gt;  - launchUserInterface(): void&lt;br/&gt;  - importData(): void&lt;br/&gt;  - importFromFile(): void&lt;br/&gt;  - importFromDirectory(): void&lt;br/&gt;  - importFromSpotify(): void&lt;br/&gt;  - generatePlaylistFromImported(): void&lt;br/&gt;  - normalizeGenres(data: UserMusicData): void&lt;/span&gt;&lt;/font&gt;&lt;br&gt;&lt;/p&gt;" style="verticalAlign=top;align=left;overflow=fill;fontSize=12;fontFamily=Helvetica;html=1;rounded=0;shadow=0;comic=0;labelBackgroundColor=none;strokeWidth=1" vertex="1" parent="1">
          <mxGeometry x="3220" y="-2970" width="330" height="470" as="geometry" />
        </mxCell>
        <mxCell id="3f7Dd7xccXGfnMvuR6js-14" value="&lt;p style=&quot;text-align: center; margin: 4px 0px 0px;&quot;&gt;&lt;font face=&quot;Roboto, -apple-system, BlinkMacSystemFont, Apple Color Emoji, Segoe UI, Oxygen, Ubuntu, Cantarell, Fira Sans, Droid Sans, Helvetica Neue, sans-serif&quot;&gt;&lt;span style=&quot;font-size: 20px; white-space: pre-wrap;&quot;&gt;&lt;b&gt;GuiLauncher&lt;/b&gt;&lt;/span&gt;&lt;/font&gt;&lt;br&gt;&lt;/p&gt;&lt;hr style=&quot;text-align: center;&quot; size=&quot;1&quot;&gt;&lt;p style=&quot;margin:0px;margin-left:4px;&quot;&gt;&amp;nbsp;- app: PlaylistGeneratorApp&lt;/p&gt;&lt;p style=&quot;margin:0px;margin-left:4px;&quot;&gt;&amp;nbsp; - config: ApplicationConfig&lt;/p&gt;&lt;p style=&quot;margin:0px;margin-left:4px;&quot;&gt;&amp;nbsp; - mainFrame: JFrame&lt;/p&gt;&lt;p style=&quot;margin:0px;margin-left:4px;&quot;&gt;&amp;nbsp; - tabbedPane: JTabbedPane&lt;/p&gt;&lt;p style=&quot;margin:0px;margin-left:4px;&quot;&gt;&amp;nbsp; + start(config: ApplicationConfig): void&lt;/p&gt;&lt;p style=&quot;margin:0px;margin-left:4px;&quot;&gt;&amp;nbsp; - createAndShowGUI(): void&lt;/p&gt;&lt;p style=&quot;margin:0px;margin-left:4px;&quot;&gt;&amp;nbsp; - createMenuBar(): JMenuBar&lt;/p&gt;&lt;p style=&quot;margin:0px;margin-left:4px;&quot;&gt;&amp;nbsp; - createGeneratePanel(): JPanel&lt;/p&gt;&lt;p style=&quot;margin:0px;margin-left:4px;&quot;&gt;&amp;nbsp; - createPreferencesPanel(): JPanel&lt;/p&gt;&lt;p style=&quot;margin:0px;margin-left:4px;&quot;&gt;&amp;nbsp; - createPlaylistsPanel(): JPanel&lt;/p&gt;&lt;p style=&quot;margin:0px;margin-left:4px;&quot;&gt;&amp;nbsp; - createImportPanel(): JPanel&lt;/p&gt;" style="verticalAlign=top;align=left;overflow=fill;fontSize=12;fontFamily=Helvetica;html=1;rounded=0;shadow=0;comic=0;labelBackgroundColor=none;strokeWidth=1" vertex="1" parent="1">
          <mxGeometry x="4480" y="-130" width="320" height="220" as="geometry" />
        </mxCell>
        <mxCell id="3f7Dd7xccXGfnMvuR6js-15" value="&lt;p style=&quot;text-align: center; margin: 4px 0px 0px;&quot;&gt;&lt;font face=&quot;Roboto, -apple-system, BlinkMacSystemFont, Apple Color Emoji, Segoe UI, Oxygen, Ubuntu, Cantarell, Fira Sans, Droid Sans, Helvetica Neue, sans-serif&quot;&gt;&lt;span style=&quot;font-size: 20px; white-space: pre-wrap;&quot;&gt;&lt;b&gt;DataImportAdapter&lt;/b&gt;&lt;/span&gt;&lt;/font&gt;&lt;br&gt;&lt;/p&gt;&lt;hr style=&quot;text-align: center;&quot; size=&quot;1&quot;&gt;&lt;p style=&quot;margin:0px;margin-left:4px;&quot;&gt;&amp;nbsp;+ canHandle(path: Path): boolean&lt;/p&gt;&lt;p style=&quot;margin:0px;margin-left:4px;&quot;&gt;&amp;nbsp; + importFromFile(path: Path): UserMusicData&lt;/p&gt;" style="verticalAlign=top;align=left;overflow=fill;fontSize=12;fontFamily=Helvetica;html=1;rounded=0;shadow=0;comic=0;labelBackgroundColor=none;strokeWidth=1" vertex="1" parent="1">
          <mxGeometry x="4120" y="950" width="390" height="90" as="geometry" />
        </mxCell>
        <mxCell id="3f7Dd7xccXGfnMvuR6js-17" value="&lt;p style=&quot;text-align: center; margin: 4px 0px 0px;&quot;&gt;&lt;font face=&quot;Roboto, -apple-system, BlinkMacSystemFont, Apple Color Emoji, Segoe UI, Oxygen, Ubuntu, Cantarell, Fira Sans, Droid Sans, Helvetica Neue, sans-serif&quot;&gt;&lt;span style=&quot;font-size: 20px; white-space: pre-wrap;&quot;&gt;&lt;b&gt;CsvDataImportAdapter&lt;/b&gt;&lt;/span&gt;&lt;/font&gt;&lt;br&gt;&lt;/p&gt;&lt;hr style=&quot;text-align: center;&quot; size=&quot;1&quot;&gt;&lt;p style=&quot;margin:0px;margin-left:4px;&quot;&gt;&amp;nbsp;+ canHandle(path: Path): boolean&lt;/p&gt;&lt;p style=&quot;margin:0px;margin-left:4px;&quot;&gt;&amp;nbsp; + importFromFile(path: Path): UserMusicData&lt;/p&gt;" style="verticalAlign=top;align=left;overflow=fill;fontSize=12;fontFamily=Helvetica;html=1;rounded=0;shadow=0;comic=0;labelBackgroundColor=none;strokeWidth=1" vertex="1" parent="1">
          <mxGeometry x="3480" y="-760" width="390" height="90" as="geometry" />
        </mxCell>
        <mxCell id="3f7Dd7xccXGfnMvuR6js-18" value="&lt;p style=&quot;text-align: center; margin: 4px 0px 0px;&quot;&gt;&lt;font face=&quot;Roboto, -apple-system, BlinkMacSystemFont, Apple Color Emoji, Segoe UI, Oxygen, Ubuntu, Cantarell, Fira Sans, Droid Sans, Helvetica Neue, sans-serif&quot;&gt;&lt;span style=&quot;font-size: 20px; white-space: pre-wrap;&quot;&gt;&lt;b&gt;XmlDataImportAdapter&lt;/b&gt;&lt;/span&gt;&lt;/font&gt;&lt;br&gt;&lt;/p&gt;&lt;hr style=&quot;text-align: center;&quot; size=&quot;1&quot;&gt;&lt;p style=&quot;margin:0px;margin-left:4px;&quot;&gt;&amp;nbsp;+ canHandle(path: Path): boolean&lt;/p&gt;&lt;p style=&quot;margin:0px;margin-left:4px;&quot;&gt;&amp;nbsp; + importFromFile(path: Path): UserMusicData&lt;/p&gt;" style="verticalAlign=top;align=left;overflow=fill;fontSize=12;fontFamily=Helvetica;html=1;rounded=0;shadow=0;comic=0;labelBackgroundColor=none;strokeWidth=1" vertex="1" parent="1">
          <mxGeometry x="5020" y="290" width="390" height="90" as="geometry" />
        </mxCell>
        <mxCell id="3f7Dd7xccXGfnMvuR6js-19" value="&lt;p style=&quot;text-align: center; margin: 4px 0px 0px;&quot;&gt;&lt;font face=&quot;Roboto, -apple-system, BlinkMacSystemFont, Apple Color Emoji, Segoe UI, Oxygen, Ubuntu, Cantarell, Fira Sans, Droid Sans, Helvetica Neue, sans-serif&quot;&gt;&lt;span style=&quot;font-size: 20px; white-space: pre-wrap;&quot;&gt;&lt;b&gt;StreamingServiceImportAdapter&lt;/b&gt;&lt;/span&gt;&lt;/font&gt;&lt;br&gt;&lt;/p&gt;&lt;hr style=&quot;text-align: center;&quot; size=&quot;1&quot;&gt;&lt;p style=&quot;margin:0px;margin-left:4px;&quot;&gt;&amp;nbsp;+ canHandle(path: Path): boolean&lt;/p&gt;&lt;p style=&quot;margin:0px;margin-left:4px;&quot;&gt;&amp;nbsp; + importFromFile(path: Path): UserMusicData&lt;/p&gt;" style="verticalAlign=top;align=left;overflow=fill;fontSize=12;fontFamily=Helvetica;html=1;rounded=0;shadow=0;comic=0;labelBackgroundColor=none;strokeWidth=1" vertex="1" parent="1">
          <mxGeometry x="3800" y="610" width="390" height="90" as="geometry" />
        </mxCell>
        <mxCell id="3f7Dd7xccXGfnMvuR6js-20" value="&lt;p style=&quot;text-align: center; margin: 4px 0px 0px;&quot;&gt;&lt;font face=&quot;Roboto, -apple-system, BlinkMacSystemFont, Apple Color Emoji, Segoe UI, Oxygen, Ubuntu, Cantarell, Fira Sans, Droid Sans, Helvetica Neue, sans-serif&quot;&gt;&lt;span style=&quot;font-size: 20px; white-space: pre-wrap;&quot;&gt;&lt;b&gt;DataImportFactory&lt;/b&gt;&lt;/span&gt;&lt;/font&gt;&lt;br&gt;&lt;/p&gt;&lt;hr style=&quot;text-align: center;&quot; size=&quot;1&quot;&gt;&lt;p style=&quot;margin:0px;margin-left:4px;&quot;&gt;&amp;nbsp;&lt;span style=&quot;background-color: transparent;&quot;&gt;+ getAdapter(path: Path): DataImportAdapter&lt;/span&gt;&lt;/p&gt;" style="verticalAlign=top;align=left;overflow=fill;fontSize=12;fontFamily=Helvetica;html=1;rounded=0;shadow=0;comic=0;labelBackgroundColor=none;strokeWidth=1" vertex="1" parent="1">
          <mxGeometry x="3860" y="-970" width="390" height="90" as="geometry" />
        </mxCell>
        <mxCell id="3f7Dd7xccXGfnMvuR6js-71" style="edgeStyle=orthogonalEdgeStyle;rounded=0;orthogonalLoop=1;jettySize=auto;html=1;fontFamily=Helvetica;fontSize=12;fontColor=default;labelBackgroundColor=none;" edge="1" parent="1" source="3f7Dd7xccXGfnMvuR6js-21" target="3f7Dd7xccXGfnMvuR6js-23">
          <mxGeometry relative="1" as="geometry">
            <mxPoint x="4540" y="870" as="targetPoint" />
          </mxGeometry>
        </mxCell>
        <mxCell id="3f7Dd7xccXGfnMvuR6js-21" value="&lt;p style=&quot;text-align: center; margin: 4px 0px 0px;&quot;&gt;&lt;font face=&quot;Roboto, -apple-system, BlinkMacSystemFont, Apple Color Emoji, Segoe UI, Oxygen, Ubuntu, Cantarell, Fira Sans, Droid Sans, Helvetica Neue, sans-serif&quot;&gt;&lt;span style=&quot;font-size: 20px; white-space: pre-wrap;&quot;&gt;&lt;b&gt;BatchImportService&lt;/b&gt;&lt;/span&gt;&lt;/font&gt;&lt;br&gt;&lt;/p&gt;&lt;hr style=&quot;text-align: center;&quot; size=&quot;1&quot;&gt;&lt;p style=&quot;margin:0px;margin-left:4px;&quot;&gt;&amp;nbsp;- importFactory: DataImportFactory&lt;/p&gt;&lt;p style=&quot;margin:0px;margin-left:4px;&quot;&gt;&amp;nbsp; + BatchImportService()&lt;/p&gt;&lt;p style=&quot;margin:0px;margin-left:4px;&quot;&gt;&amp;nbsp; + importFromDirectory(directoryPath: Path): UserMusicData&lt;/p&gt;&lt;p style=&quot;margin:0px;margin-left:4px;&quot;&gt;&amp;nbsp; + importFromMultipleFiles(filePaths: List&amp;lt;Path&amp;gt;): UserMusicData&lt;/p&gt;&lt;p style=&quot;margin:0px;margin-left:4px;&quot;&gt;}&lt;/p&gt;" style="verticalAlign=top;align=left;overflow=fill;fontSize=12;fontFamily=Helvetica;html=1;rounded=0;shadow=0;comic=0;labelBackgroundColor=none;strokeWidth=1" vertex="1" parent="1">
          <mxGeometry x="4275" y="440" width="400" height="120" as="geometry" />
        </mxCell>
        <mxCell id="3f7Dd7xccXGfnMvuR6js-72" style="edgeStyle=orthogonalEdgeStyle;rounded=0;orthogonalLoop=1;jettySize=auto;html=1;fontFamily=Helvetica;fontSize=12;fontColor=default;labelBackgroundColor=none;" edge="1" parent="1" source="3f7Dd7xccXGfnMvuR6js-23" target="3f7Dd7xccXGfnMvuR6js-25">
          <mxGeometry relative="1" as="geometry" />
        </mxCell>
        <mxCell id="3f7Dd7xccXGfnMvuR6js-74" style="edgeStyle=orthogonalEdgeStyle;rounded=0;orthogonalLoop=1;jettySize=auto;html=1;fontFamily=Helvetica;fontSize=12;fontColor=default;labelBackgroundColor=none;" edge="1" parent="1" source="3f7Dd7xccXGfnMvuR6js-23">
          <mxGeometry relative="1" as="geometry">
            <mxPoint x="5050.000000000001" y="1069.999999999999" as="targetPoint" />
          </mxGeometry>
        </mxCell>
        <mxCell id="3f7Dd7xccXGfnMvuR6js-23" value="&lt;p style=&quot;text-align: center; margin: 4px 0px 0px;&quot;&gt;&lt;font face=&quot;Roboto, -apple-system, BlinkMacSystemFont, Apple Color Emoji, Segoe UI, Oxygen, Ubuntu, Cantarell, Fira Sans, Droid Sans, Helvetica Neue, sans-serif&quot;&gt;&lt;span style=&quot;font-size: 20px; white-space: pre-wrap;&quot;&gt;&lt;b&gt;DataImportService&lt;/b&gt;&lt;/span&gt;&lt;/font&gt;&lt;br&gt;&lt;/p&gt;&lt;hr style=&quot;text-align: center;&quot; size=&quot;1&quot;&gt;&lt;p style=&quot;margin:0px;margin-left:4px;&quot;&gt;&amp;nbsp;&lt;br&gt;&lt;/p&gt;" style="verticalAlign=top;align=left;overflow=fill;fontSize=12;fontFamily=Helvetica;html=1;rounded=0;shadow=0;comic=0;labelBackgroundColor=none;strokeWidth=1" vertex="1" parent="1">
          <mxGeometry x="4690" y="730" width="400" height="120" as="geometry" />
        </mxCell>
        <mxCell id="3f7Dd7xccXGfnMvuR6js-24" value="&lt;p style=&quot;text-align: center; margin: 4px 0px 0px;&quot;&gt;&lt;font face=&quot;Roboto, -apple-system, BlinkMacSystemFont, Apple Color Emoji, Segoe UI, Oxygen, Ubuntu, Cantarell, Fira Sans, Droid Sans, Helvetica Neue, sans-serif&quot;&gt;&lt;span style=&quot;font-size: 20px; white-space: pre-wrap;&quot;&gt;&lt;b&gt;PlaylistExporter&lt;/b&gt;&lt;/span&gt;&lt;/font&gt;&lt;br&gt;&lt;/p&gt;&lt;hr style=&quot;text-align: center;&quot; size=&quot;1&quot;&gt;&lt;p style=&quot;margin:0px;margin-left:4px;&quot;&gt;&amp;nbsp;&lt;span style=&quot;background-color: transparent;&quot;&gt;+ export(playlist: Playlist, destination: String): void&lt;/span&gt;&lt;/p&gt;" style="verticalAlign=top;align=left;overflow=fill;fontSize=12;fontFamily=Helvetica;html=1;rounded=0;shadow=0;comic=0;labelBackgroundColor=none;strokeWidth=1" vertex="1" parent="1">
          <mxGeometry x="4780" y="180" width="320" height="70" as="geometry" />
        </mxCell>
        <mxCell id="3f7Dd7xccXGfnMvuR6js-25" value="&lt;p style=&quot;text-align: center; margin: 4px 0px 0px;&quot;&gt;&lt;font face=&quot;Roboto, -apple-system, BlinkMacSystemFont, Apple Color Emoji, Segoe UI, Oxygen, Ubuntu, Cantarell, Fira Sans, Droid Sans, Helvetica Neue, sans-serif&quot;&gt;&lt;span style=&quot;font-size: 20px; white-space: pre-wrap;&quot;&gt;&lt;b&gt;M3uPlaylistExporter&lt;/b&gt;&lt;/span&gt;&lt;/font&gt;&lt;br&gt;&lt;/p&gt;&lt;hr style=&quot;text-align: center;&quot; size=&quot;1&quot;&gt;&lt;p style=&quot;margin:0px;margin-left:4px;&quot;&gt;&amp;nbsp;+ export(playlist: Playlist, destination: String): void&lt;br&gt;&lt;/p&gt;" style="verticalAlign=top;align=left;overflow=fill;fontSize=12;fontFamily=Helvetica;html=1;rounded=0;shadow=0;comic=0;labelBackgroundColor=none;strokeWidth=1" vertex="1" parent="1">
          <mxGeometry x="5200" y="570" width="320" height="70" as="geometry" />
        </mxCell>
        <mxCell id="3f7Dd7xccXGfnMvuR6js-26" value="&lt;p style=&quot;text-align: center; margin: 4px 0px 0px;&quot;&gt;&lt;font face=&quot;Roboto, -apple-system, BlinkMacSystemFont, Apple Color Emoji, Segoe UI, Oxygen, Ubuntu, Cantarell, Fira Sans, Droid Sans, Helvetica Neue, sans-serif&quot;&gt;&lt;span style=&quot;font-size: 20px; white-space: pre-wrap;&quot;&gt;&lt;b&gt;SetupWizard&lt;/b&gt;&lt;/span&gt;&lt;/font&gt;&lt;br&gt;&lt;/p&gt;&lt;hr style=&quot;text-align: center;&quot; size=&quot;1&quot;&gt;&lt;p style=&quot;margin:0px;margin-left:4px;&quot;&gt;&amp;nbsp;&lt;span style=&quot;background-color: transparent;&quot;&gt;- scanner: Scanner&lt;/span&gt;&lt;br&gt;&lt;/p&gt;&lt;p style=&quot;margin:0px;margin-left:4px;&quot;&gt;&amp;nbsp; + SetupWizard()&lt;/p&gt;&lt;p style=&quot;margin:0px;margin-left:4px;&quot;&gt;&amp;nbsp; + run(currentConfig: ApplicationConfig): ApplicationConfig&lt;/p&gt;&lt;p style=&quot;margin:0px;margin-left:4px;&quot;&gt;&amp;nbsp; - configureExternalService(newConfig: ApplicationConfig, currentConfig: ApplicationConfig, serviceKey: String, serviceName: String): void&lt;/p&gt;&lt;p style=&quot;margin:0px;margin-left:4px;&quot;&gt;&amp;nbsp; - maskApiKey(key: String): String&lt;/p&gt;&lt;p style=&quot;margin:0px;margin-left:4px;&quot;&gt;}&lt;/p&gt;" style="verticalAlign=top;align=left;overflow=fill;fontSize=12;fontFamily=Helvetica;html=1;rounded=0;shadow=0;comic=0;labelBackgroundColor=none;strokeWidth=1" vertex="1" parent="1">
          <mxGeometry x="2750" y="-130" width="750" height="130" as="geometry" />
        </mxCell>
        <mxCell id="3f7Dd7xccXGfnMvuR6js-30" style="edgeStyle=orthogonalEdgeStyle;rounded=0;orthogonalLoop=1;jettySize=auto;html=1;exitX=0.75;exitY=0;exitDx=0;exitDy=0;entryX=0.627;entryY=1.007;entryDx=0;entryDy=0;entryPerimeter=0;fontFamily=Helvetica;fontSize=12;fontColor=default;labelBackgroundColor=none;" edge="1" parent="1" source="3f7Dd7xccXGfnMvuR6js-2" target="3f7Dd7xccXGfnMvuR6js-10">
          <mxGeometry relative="1" as="geometry" />
        </mxCell>
        <mxCell id="3f7Dd7xccXGfnMvuR6js-46" value="&lt;p style=&quot;text-align: center; margin: 4px 0px 0px;&quot;&gt;&lt;i&gt;&lt;font style=&quot;font-size: 20px;&quot;&gt;&lt;b&gt;PlaylistGenerator&lt;/b&gt;&lt;/font&gt;&lt;/i&gt;&lt;/p&gt;&lt;hr size=&quot;1&quot;&gt;&lt;p style=&quot;margin:0px;margin-left:4px;&quot;&gt;&amp;nbsp;&lt;font face=&quot;Roboto, -apple-system, BlinkMacSystemFont, Apple Color Emoji, Segoe UI, Oxygen, Ubuntu, Cantarell, Fira Sans, Droid Sans, Helvetica Neue, sans-serif&quot;&gt;&lt;span style=&quot;font-size: 16px; white-space: pre-wrap;&quot;&gt;- genreMapper: GenreMapper&lt;br/&gt;  + PlaylistGenerator()&lt;br/&gt;  + generatePlaylist(userData: UserMusicData, preferences: PlaylistPreferences): Playlist&lt;br/&gt;  - generateFromHistory(userData: UserMusicData, preferences: PlaylistPreferences): Playlist&lt;br/&gt;  - generateFromSongs(userData: UserMusicData, preferences: PlaylistPreferences): Playlist&lt;br/&gt;  - generateFromArtists(userData: UserMusicData, preferences: PlaylistPreferences): Playlist&lt;br/&gt;  - generateFromUserInput(preferences: PlaylistPreferences): Playlist&lt;br/&gt;  - filterAndSelectSongs(candidateSongs: List&amp;lt;Song&amp;gt;, preferences: PlaylistPreferences): List&amp;lt;Song&amp;gt;&lt;br/&gt;  - hasMatchingGenre(song: Song, targetGenres: Set&amp;lt;String&amp;gt;): boolean&lt;br/&gt;  - selectSongs(candidateSongs: List&amp;lt;Song&amp;gt;, preferences: PlaylistPreferences): List&amp;lt;Song&amp;gt;&lt;br/&gt;  - selectRandomSongs(candidateSongs: List&amp;lt;Song&amp;gt;, count: int): List&amp;lt;Song&amp;gt;&lt;br/&gt;  - selectPopularSongs(candidateSongs: List&amp;lt;Song&amp;gt;, count: int): List&amp;lt;Song&amp;gt;&lt;br/&gt;  - selectDiverseSongs(candidateSongs: List&amp;lt;Song&amp;gt;, count: int): List&amp;lt;Song&amp;gt;&lt;br/&gt;  - selectBalancedSongs(candidateSongs: List&amp;lt;Song&amp;gt;, count: int): List&amp;lt;Song&amp;gt;&lt;/span&gt;&lt;/font&gt;&lt;br&gt;&lt;/p&gt;" style="verticalAlign=top;align=left;overflow=fill;fontSize=12;fontFamily=Helvetica;html=1;rounded=0;shadow=0;comic=0;labelBackgroundColor=none;strokeWidth=1" vertex="1" parent="1">
          <mxGeometry x="1870" y="-1980" width="760" height="330" as="geometry" />
        </mxCell>
        <mxCell id="3f7Dd7xccXGfnMvuR6js-51" style="edgeStyle=orthogonalEdgeStyle;rounded=0;orthogonalLoop=1;jettySize=auto;html=1;entryX=0.169;entryY=-0.001;entryDx=0;entryDy=0;entryPerimeter=0;fontFamily=Helvetica;fontSize=12;fontColor=default;labelBackgroundColor=none;startArrow=classic;startFill=0;endArrow=none;" edge="1" parent="1" source="3f7Dd7xccXGfnMvuR6js-11" target="3f7Dd7xccXGfnMvuR6js-10">
          <mxGeometry relative="1" as="geometry">
            <mxPoint x="4011.2199999999993" y="-1562.38" as="targetPoint" />
          </mxGeometry>
        </mxCell>
        <mxCell id="3f7Dd7xccXGfnMvuR6js-52" style="edgeStyle=orthogonalEdgeStyle;rounded=0;orthogonalLoop=1;jettySize=auto;html=1;entryX=0.005;entryY=0.693;entryDx=0;entryDy=0;entryPerimeter=0;fontFamily=Helvetica;fontSize=12;fontColor=default;labelBackgroundColor=none;startArrow=classic;startFill=0;endArrow=none;" edge="1" parent="1" source="3f7Dd7xccXGfnMvuR6js-7" target="3f7Dd7xccXGfnMvuR6js-10">
          <mxGeometry relative="1" as="geometry">
            <mxPoint x="4154.824999999999" y="-1389.3200000000002" as="targetPoint" />
          </mxGeometry>
        </mxCell>
        <mxCell id="3f7Dd7xccXGfnMvuR6js-54" style="edgeStyle=orthogonalEdgeStyle;rounded=0;orthogonalLoop=1;jettySize=auto;html=1;entryX=0.02;entryY=0.391;entryDx=0;entryDy=0;entryPerimeter=0;fontFamily=Helvetica;fontSize=12;fontColor=default;labelBackgroundColor=none;" edge="1" parent="1" source="3f7Dd7xccXGfnMvuR6js-6" target="3f7Dd7xccXGfnMvuR6js-7">
          <mxGeometry relative="1" as="geometry" />
        </mxCell>
        <mxCell id="3f7Dd7xccXGfnMvuR6js-55" style="edgeStyle=orthogonalEdgeStyle;rounded=0;orthogonalLoop=1;jettySize=auto;html=1;entryX=0.004;entryY=0.656;entryDx=0;entryDy=0;entryPerimeter=0;fontFamily=Helvetica;fontSize=12;fontColor=default;labelBackgroundColor=none;" edge="1" parent="1" source="Cpw8ShEnOvC4lxhR0TyV-3" target="3f7Dd7xccXGfnMvuR6js-7">
          <mxGeometry relative="1" as="geometry" />
        </mxCell>
        <mxCell id="3f7Dd7xccXGfnMvuR6js-56" style="edgeStyle=orthogonalEdgeStyle;rounded=0;orthogonalLoop=1;jettySize=auto;html=1;entryX=-0.003;entryY=0.851;entryDx=0;entryDy=0;entryPerimeter=0;fontFamily=Helvetica;fontSize=12;fontColor=default;labelBackgroundColor=none;" edge="1" parent="1" source="3f7Dd7xccXGfnMvuR6js-8" target="3f7Dd7xccXGfnMvuR6js-7">
          <mxGeometry relative="1" as="geometry" />
        </mxCell>
        <mxCell id="3f7Dd7xccXGfnMvuR6js-58" style="edgeStyle=orthogonalEdgeStyle;rounded=0;orthogonalLoop=1;jettySize=auto;html=1;entryX=0.541;entryY=0.018;entryDx=0;entryDy=0;entryPerimeter=0;fontFamily=Helvetica;fontSize=12;fontColor=default;labelBackgroundColor=none;" edge="1" parent="1" source="3f7Dd7xccXGfnMvuR6js-7" target="3f7Dd7xccXGfnMvuR6js-5">
          <mxGeometry relative="1" as="geometry" />
        </mxCell>
        <mxCell id="3f7Dd7xccXGfnMvuR6js-59" style="edgeStyle=orthogonalEdgeStyle;rounded=0;orthogonalLoop=1;jettySize=auto;html=1;entryX=0;entryY=0.556;entryDx=0;entryDy=0;entryPerimeter=0;fontFamily=Helvetica;fontSize=12;fontColor=default;labelBackgroundColor=none;exitX=1.01;exitY=0.84;exitDx=0;exitDy=0;exitPerimeter=0;" edge="1" parent="1" source="3f7Dd7xccXGfnMvuR6js-13" target="3f7Dd7xccXGfnMvuR6js-10">
          <mxGeometry relative="1" as="geometry">
            <mxPoint x="3720" y="-3010" as="sourcePoint" />
            <Array as="points">
              <mxPoint x="3660" y="-2575" />
              <mxPoint x="3660" y="-2590" />
              <mxPoint x="4020" y="-2590" />
              <mxPoint x="4020" y="-1160" />
            </Array>
          </mxGeometry>
        </mxCell>
        <mxCell id="3f7Dd7xccXGfnMvuR6js-61" style="edgeStyle=orthogonalEdgeStyle;rounded=0;orthogonalLoop=1;jettySize=auto;html=1;entryX=0.485;entryY=-0.001;entryDx=0;entryDy=0;entryPerimeter=0;fontFamily=Helvetica;fontSize=12;fontColor=default;labelBackgroundColor=none;" edge="1" parent="1" source="3f7Dd7xccXGfnMvuR6js-13" target="Cpw8ShEnOvC4lxhR0TyV-23">
          <mxGeometry relative="1" as="geometry" />
        </mxCell>
        <mxCell id="3f7Dd7xccXGfnMvuR6js-64" value="&lt;p style=&quot;text-align: center; margin: 4px 0px 0px;&quot;&gt;&lt;font face=&quot;Roboto, -apple-system, BlinkMacSystemFont, Apple Color Emoji, Segoe UI, Oxygen, Ubuntu, Cantarell, Fira Sans, Droid Sans, Helvetica Neue, sans-serif&quot;&gt;&lt;span style=&quot;font-size: 20px; white-space: pre-wrap;&quot;&gt;&lt;b&gt;Song&lt;/b&gt;&lt;/span&gt;&lt;/font&gt;&lt;br&gt;&lt;/p&gt;&lt;hr style=&quot;text-align: center;&quot; size=&quot;1&quot;&gt;&lt;p style=&quot;margin:0px;margin-left:4px;&quot;&gt;- title: String&lt;/p&gt;&lt;p style=&quot;margin:0px;margin-left:4px;&quot;&gt;&amp;nbsp; - artistName: String&lt;/p&gt;&lt;p style=&quot;margin:0px;margin-left:4px;&quot;&gt;&amp;nbsp; - album: String&lt;/p&gt;&lt;p style=&quot;margin:0px;margin-left:4px;&quot;&gt;&amp;nbsp; - durationMs: long&lt;/p&gt;&lt;p style=&quot;margin:0px;margin-left:4px;&quot;&gt;&amp;nbsp; - genres: List&amp;lt;String&amp;gt;&lt;/p&gt;&lt;p style=&quot;margin:0px;margin-left:4px;&quot;&gt;&amp;nbsp; - playCount: int&lt;/p&gt;&lt;p style=&quot;margin:0px;margin-left:4px;&quot;&gt;&amp;nbsp; - id: String&lt;/p&gt;&lt;p style=&quot;margin:0px;margin-left:4px;&quot;&gt;&amp;nbsp; - artistSpotifyId: String&lt;/p&gt;&lt;p style=&quot;margin:0px;margin-left:4px;&quot;&gt;&amp;nbsp; - popularity: int&lt;/p&gt;&lt;p style=&quot;margin:0px;margin-left:4px;&quot;&gt;&amp;nbsp; - imageUrl: String&lt;/p&gt;&lt;p style=&quot;margin:0px;margin-left:4px;&quot;&gt;&amp;nbsp; + getters()&lt;/p&gt;&lt;p style=&quot;margin:0px;margin-left:4px;&quot;&gt;&amp;nbsp; + setters()&lt;/p&gt;" style="verticalAlign=top;align=left;overflow=fill;fontSize=12;fontFamily=Helvetica;html=1;rounded=0;shadow=0;comic=0;labelBackgroundColor=none;strokeWidth=1" vertex="1" parent="1">
          <mxGeometry x="5180" y="-570" width="290" height="240" as="geometry" />
        </mxCell>
        <mxCell id="3f7Dd7xccXGfnMvuR6js-66" value="&lt;p style=&quot;text-align: center; margin: 4px 0px 0px;&quot;&gt;&lt;font face=&quot;Roboto, -apple-system, BlinkMacSystemFont, Apple Color Emoji, Segoe UI, Oxygen, Ubuntu, Cantarell, Fira Sans, Droid Sans, Helvetica Neue, sans-serif&quot;&gt;&lt;span style=&quot;font-size: 20px; white-space: pre-wrap;&quot;&gt;&lt;b&gt;Artist&lt;/b&gt;&lt;/span&gt;&lt;/font&gt;&lt;br&gt;&lt;/p&gt;&lt;hr style=&quot;text-align: center;&quot; size=&quot;1&quot;&gt;&lt;p style=&quot;margin:0px;margin-left:4px;&quot;&gt;- name: String&lt;/p&gt;&lt;p style=&quot;margin:0px;margin-left:4px;&quot;&gt;&amp;nbsp; - spotifyId: String&lt;/p&gt;&lt;p style=&quot;margin:0px;margin-left:4px;&quot;&gt;&amp;nbsp; - popularity: int&lt;/p&gt;&lt;p style=&quot;margin:0px;margin-left:4px;&quot;&gt;&amp;nbsp; - imageUrl: String&lt;/p&gt;&lt;p style=&quot;margin:0px;margin-left:4px;&quot;&gt;&amp;nbsp; - genres: List&amp;lt;String&amp;gt;&lt;/p&gt;&lt;p style=&quot;margin:0px;margin-left:4px;&quot;&gt;&amp;nbsp; - topSongs: List&amp;lt;Song&amp;gt;&lt;/p&gt;&lt;p style=&quot;margin:0px;margin-left:4px;&quot;&gt;&amp;nbsp; + getters()&lt;/p&gt;&lt;p style=&quot;margin:0px;margin-left:4px;&quot;&gt;&amp;nbsp; + setters()&lt;/p&gt;" style="verticalAlign=top;align=left;overflow=fill;fontSize=12;fontFamily=Helvetica;html=1;rounded=0;shadow=0;comic=0;labelBackgroundColor=none;strokeWidth=1" vertex="1" parent="1">
          <mxGeometry x="5390" y="-80" width="230" height="170" as="geometry" />
        </mxCell>
        <mxCell id="3f7Dd7xccXGfnMvuR6js-67" style="edgeStyle=orthogonalEdgeStyle;rounded=0;orthogonalLoop=1;jettySize=auto;html=1;entryX=0.522;entryY=1.001;entryDx=0;entryDy=0;entryPerimeter=0;fontFamily=Helvetica;fontSize=12;fontColor=default;labelBackgroundColor=none;" edge="1" parent="1" source="3f7Dd7xccXGfnMvuR6js-66" target="3f7Dd7xccXGfnMvuR6js-4">
          <mxGeometry relative="1" as="geometry" />
        </mxCell>
        <mxCell id="3f7Dd7xccXGfnMvuR6js-68" value="&lt;p style=&quot;text-align: center; margin: 4px 0px 0px;&quot;&gt;&lt;font face=&quot;Roboto, -apple-system, BlinkMacSystemFont, Apple Color Emoji, Segoe UI, Oxygen, Ubuntu, Cantarell, Fira Sans, Droid Sans, Helvetica Neue, sans-serif&quot;&gt;&lt;span style=&quot;font-size: 20px; white-space: pre-wrap;&quot;&gt;&lt;b&gt;PlayHistory&lt;/b&gt;&lt;/span&gt;&lt;/font&gt;&lt;br&gt;&lt;/p&gt;&lt;hr style=&quot;text-align: center;&quot; size=&quot;1&quot;&gt;&lt;p style=&quot;margin:0px;margin-left:4px;&quot;&gt;- songId: String&lt;/p&gt;&lt;p style=&quot;margin:0px;margin-left:4px;&quot;&gt;&amp;nbsp; - timestamp: Date&lt;/p&gt;&lt;p style=&quot;margin:0px;margin-left:4px;&quot;&gt;&amp;nbsp; + getters()&lt;/p&gt;&lt;p style=&quot;margin:0px;margin-left:4px;&quot;&gt;&amp;nbsp; + setters()&lt;/p&gt;" style="verticalAlign=top;align=left;overflow=fill;fontSize=12;fontFamily=Helvetica;html=1;rounded=0;shadow=0;comic=0;labelBackgroundColor=none;strokeWidth=1" vertex="1" parent="1">
          <mxGeometry x="5850" y="-370" width="230" height="120" as="geometry" />
        </mxCell>
        <mxCell id="3f7Dd7xccXGfnMvuR6js-69" style="edgeStyle=orthogonalEdgeStyle;rounded=0;orthogonalLoop=1;jettySize=auto;html=1;entryX=1;entryY=0.708;entryDx=0;entryDy=0;entryPerimeter=0;fontFamily=Helvetica;fontSize=12;fontColor=default;labelBackgroundColor=none;" edge="1" parent="1" source="3f7Dd7xccXGfnMvuR6js-68" target="3f7Dd7xccXGfnMvuR6js-4">
          <mxGeometry relative="1" as="geometry" />
        </mxCell>
        <mxCell id="3f7Dd7xccXGfnMvuR6js-70" style="edgeStyle=orthogonalEdgeStyle;rounded=0;orthogonalLoop=1;jettySize=auto;html=1;entryX=0.272;entryY=0.999;entryDx=0;entryDy=0;entryPerimeter=0;fontFamily=Helvetica;fontSize=12;fontColor=default;labelBackgroundColor=none;" edge="1" parent="1" source="3f7Dd7xccXGfnMvuR6js-14" target="3f7Dd7xccXGfnMvuR6js-4">
          <mxGeometry relative="1" as="geometry">
            <Array as="points">
              <mxPoint x="4879" y="-20" />
            </Array>
          </mxGeometry>
        </mxCell>
        <mxCell id="3f7Dd7xccXGfnMvuR6js-73" value="&lt;p style=&quot;text-align: center; margin: 4px 0px 0px;&quot;&gt;&lt;font face=&quot;Roboto, -apple-system, BlinkMacSystemFont, Apple Color Emoji, Segoe UI, Oxygen, Ubuntu, Cantarell, Fira Sans, Droid Sans, Helvetica Neue, sans-serif&quot;&gt;&lt;span style=&quot;font-size: 20px; white-space: pre-wrap;&quot;&gt;&lt;b&gt;UserMusicData&lt;/b&gt;&lt;/span&gt;&lt;/font&gt;&lt;br&gt;&lt;/p&gt;&lt;hr style=&quot;text-align: center;&quot; size=&quot;1&quot;&gt;&lt;p style=&quot;margin:0px;margin-left:4px;&quot;&gt;- songs: List&amp;lt;Song&amp;gt;&lt;/p&gt;&lt;p style=&quot;margin:0px;margin-left:4px;&quot;&gt;&amp;nbsp; - artists: List&amp;lt;Artist&amp;gt;&lt;/p&gt;&lt;p style=&quot;margin:0px;margin-left:4px;&quot;&gt;&amp;nbsp; - playHistory: List&amp;lt;PlayHistory&amp;gt;&lt;/p&gt;&lt;p style=&quot;margin:0px;margin-left:4px;&quot;&gt;&amp;nbsp; - favoriteGenres: List&amp;lt;String&amp;gt;&lt;/p&gt;&lt;p style=&quot;margin:0px;margin-left:4px;&quot;&gt;&amp;nbsp; + getSongs(): List&amp;lt;Song&amp;gt;&lt;/p&gt;&lt;p style=&quot;margin:0px;margin-left:4px;&quot;&gt;&amp;nbsp; + getArtists(): List&amp;lt;Artist&amp;gt;&lt;/p&gt;&lt;p style=&quot;margin:0px;margin-left:4px;&quot;&gt;&amp;nbsp; + getPlayHistory(): List&amp;lt;PlayHistory&amp;gt;&lt;/p&gt;&lt;p style=&quot;margin:0px;margin-left:4px;&quot;&gt;&amp;nbsp; + getFavoriteGenres(): List&amp;lt;String&amp;gt;&lt;/p&gt;&lt;p style=&quot;margin:0px;margin-left:4px;&quot;&gt;&amp;nbsp; + addSong(song: Song): void&lt;/p&gt;&lt;p style=&quot;margin:0px;margin-left:4px;&quot;&gt;&amp;nbsp; + addArtist(artist: Artist): void&lt;/p&gt;&lt;p style=&quot;margin:0px;margin-left:4px;&quot;&gt;&amp;nbsp; + addFavoriteGenre(genre: String): void&lt;/p&gt;&lt;p style=&quot;margin:0px;margin-left:4px;&quot;&gt;&amp;nbsp; + merge(other: UserMusicData): void&lt;/p&gt;&lt;p style=&quot;margin:0px;margin-left:4px;&quot;&gt;&amp;nbsp; + isEmpty(): boolean&lt;/p&gt;" style="verticalAlign=top;align=left;overflow=fill;fontSize=12;fontFamily=Helvetica;html=1;rounded=0;shadow=0;comic=0;labelBackgroundColor=none;strokeWidth=1" vertex="1" parent="1">
          <mxGeometry x="4920" y="1060" width="290" height="240" as="geometry" />
        </mxCell>
        <mxCell id="3f7Dd7xccXGfnMvuR6js-75" style="edgeStyle=orthogonalEdgeStyle;rounded=0;orthogonalLoop=1;jettySize=auto;html=1;entryX=0.551;entryY=0.017;entryDx=0;entryDy=0;entryPerimeter=0;fontFamily=Helvetica;fontSize=12;fontColor=default;labelBackgroundColor=none;" edge="1" parent="1" source="3f7Dd7xccXGfnMvuR6js-23" target="3f7Dd7xccXGfnMvuR6js-15">
          <mxGeometry relative="1" as="geometry" />
        </mxCell>
        <mxCell id="3f7Dd7xccXGfnMvuR6js-76" style="edgeStyle=orthogonalEdgeStyle;rounded=0;orthogonalLoop=1;jettySize=auto;html=1;entryX=0.157;entryY=-0.037;entryDx=0;entryDy=0;entryPerimeter=0;fontFamily=Helvetica;fontSize=12;fontColor=default;labelBackgroundColor=none;" edge="1" parent="1" source="3f7Dd7xccXGfnMvuR6js-19" target="3f7Dd7xccXGfnMvuR6js-23">
          <mxGeometry relative="1" as="geometry" />
        </mxCell>
        <mxCell id="3f7Dd7xccXGfnMvuR6js-77" style="edgeStyle=orthogonalEdgeStyle;rounded=0;orthogonalLoop=1;jettySize=auto;html=1;entryX=0.753;entryY=0.029;entryDx=0;entryDy=0;entryPerimeter=0;fontFamily=Helvetica;fontSize=12;fontColor=default;labelBackgroundColor=none;" edge="1" parent="1" source="3f7Dd7xccXGfnMvuR6js-18" target="3f7Dd7xccXGfnMvuR6js-23">
          <mxGeometry relative="1" as="geometry" />
        </mxCell>
        <mxCell id="3f7Dd7xccXGfnMvuR6js-78" style="edgeStyle=orthogonalEdgeStyle;rounded=0;orthogonalLoop=1;jettySize=auto;html=1;entryX=0.638;entryY=0.023;entryDx=0;entryDy=0;entryPerimeter=0;fontFamily=Helvetica;fontSize=12;fontColor=default;labelBackgroundColor=none;" edge="1" parent="1" source="3f7Dd7xccXGfnMvuR6js-12" target="3f7Dd7xccXGfnMvuR6js-2">
          <mxGeometry relative="1" as="geometry" />
        </mxCell>
        <mxCell id="3f7Dd7xccXGfnMvuR6js-79" style="edgeStyle=orthogonalEdgeStyle;rounded=0;orthogonalLoop=1;jettySize=auto;html=1;entryX=0.653;entryY=-0.021;entryDx=0;entryDy=0;entryPerimeter=0;fontFamily=Helvetica;fontSize=12;fontColor=default;labelBackgroundColor=none;" edge="1" parent="1" source="3f7Dd7xccXGfnMvuR6js-24" target="3f7Dd7xccXGfnMvuR6js-23">
          <mxGeometry relative="1" as="geometry" />
        </mxCell>
      </root>
    </mxGraphModel>
  </diagram>
</mxfile>
